G04 #@! TF.GenerationSoftware,KiCad,Pcbnew,(5.0.0)*
G04 #@! TF.CreationDate,2018-09-25T21:01:13+02:00*
G04 #@! TF.ProjectId,G3,47332E6B696361645F70636200000000,rev?*
G04 #@! TF.SameCoordinates,Original*
G04 #@! TF.FileFunction,Drawing*
%FSLAX46Y46*%
G04 Gerber Fmt 4.6, Leading zero omitted, Abs format (unit mm)*
G04 Created by KiCad (PCBNEW (5.0.0)) date 09/25/18 21:01:13*
%MOMM*%
%LPD*%
G01*
G04 APERTURE LIST*
%ADD10C,0.200000*%
%ADD11C,0.100000*%
G04 APERTURE END LIST*
D10*
G04 #@! TO.C,U301*
X77477000Y-105022000D02*
X76577000Y-105022000D01*
X76577000Y-105022000D02*
X76577000Y-107022000D01*
X79117000Y-107022000D02*
X80017000Y-107022000D01*
X80017000Y-107022000D02*
X80017000Y-105022000D01*
X77847000Y-105022000D02*
X77847000Y-107022000D01*
X77847000Y-107022000D02*
X78747000Y-107022000D01*
X78747000Y-105022000D02*
X77847000Y-105022000D01*
X78747000Y-107022000D02*
X78747000Y-105022000D01*
X76577000Y-107022000D02*
X77477000Y-107022000D01*
X76207000Y-105022000D02*
X75307000Y-105022000D01*
X77477000Y-107022000D02*
X77477000Y-105022000D01*
X84197000Y-107022000D02*
X85097000Y-107022000D01*
X83827000Y-105022000D02*
X82927000Y-105022000D01*
X83827000Y-107022000D02*
X83827000Y-105022000D01*
X81657000Y-105022000D02*
X81657000Y-107022000D01*
X81657000Y-107022000D02*
X82557000Y-107022000D01*
X61137000Y-106022000D02*
X92537000Y-106022000D01*
X80387000Y-105022000D02*
X80387000Y-107022000D01*
X82927000Y-105022000D02*
X82927000Y-107022000D01*
X84197000Y-105022000D02*
X84197000Y-107022000D01*
X86237000Y-106022000D02*
X86237000Y-124022000D01*
X85097000Y-107022000D02*
X85097000Y-105022000D01*
X85097000Y-105022000D02*
X84197000Y-105022000D01*
X82557000Y-105022000D02*
X81657000Y-105022000D01*
X82557000Y-107022000D02*
X82557000Y-105022000D01*
X81287000Y-105022000D02*
X80387000Y-105022000D01*
X80387000Y-107022000D02*
X81287000Y-107022000D01*
X92537000Y-124022000D02*
X61137000Y-124022000D01*
X82927000Y-107022000D02*
X83827000Y-107022000D01*
X81287000Y-107022000D02*
X81287000Y-105022000D01*
X80017000Y-105022000D02*
X79117000Y-105022000D01*
X92537000Y-106022000D02*
X92537000Y-124022000D01*
X79117000Y-105022000D02*
X79117000Y-107022000D01*
X61137000Y-124022000D02*
X61137000Y-106022000D01*
X80387000Y-125022000D02*
X80387000Y-123022000D01*
X62607000Y-125022000D02*
X62607000Y-123022000D01*
X62607000Y-123022000D02*
X63507000Y-123022000D01*
X80017000Y-125022000D02*
X79117000Y-125022000D01*
X81287000Y-123022000D02*
X81287000Y-125022000D01*
X67317000Y-125022000D02*
X66417000Y-125022000D01*
X66047000Y-123022000D02*
X66047000Y-125022000D01*
X81657000Y-125022000D02*
X81657000Y-123022000D01*
X62237000Y-125022000D02*
X61337000Y-125022000D01*
X63507000Y-125022000D02*
X62607000Y-125022000D01*
X81657000Y-123022000D02*
X82557000Y-123022000D01*
X82557000Y-123022000D02*
X82557000Y-125022000D01*
X66417000Y-123022000D02*
X67317000Y-123022000D01*
X61337000Y-123022000D02*
X62237000Y-123022000D01*
X65147000Y-123022000D02*
X66047000Y-123022000D01*
X79647000Y-116022000D02*
X79647000Y-111022000D01*
X79647000Y-111022000D02*
X74647000Y-111022000D01*
X80387000Y-123022000D02*
X81287000Y-123022000D01*
X74647000Y-111022000D02*
X74647000Y-116022000D01*
X81287000Y-125022000D02*
X80387000Y-125022000D01*
X74647000Y-116022000D02*
X79647000Y-116022000D01*
X63507000Y-123022000D02*
X63507000Y-125022000D01*
X62237000Y-123022000D02*
X62237000Y-125022000D01*
X66047000Y-125022000D02*
X65147000Y-125022000D01*
X64777000Y-125022000D02*
X63877000Y-125022000D01*
X67317000Y-123022000D02*
X67317000Y-125022000D01*
X64777000Y-123022000D02*
X64777000Y-125022000D01*
X66417000Y-125022000D02*
X66417000Y-123022000D01*
X63877000Y-125022000D02*
X63877000Y-123022000D01*
X79117000Y-123022000D02*
X80017000Y-123022000D01*
X79117000Y-125022000D02*
X79117000Y-123022000D01*
X80017000Y-123022000D02*
X80017000Y-125022000D01*
X63877000Y-123022000D02*
X64777000Y-123022000D01*
X61337000Y-125022000D02*
X61337000Y-123022000D01*
X65147000Y-125022000D02*
X65147000Y-123022000D01*
X82557000Y-125022000D02*
X81657000Y-125022000D01*
X69857000Y-123022000D02*
X69857000Y-125022000D01*
X83827000Y-125022000D02*
X82927000Y-125022000D01*
X73667000Y-123022000D02*
X73667000Y-125022000D01*
X82927000Y-125022000D02*
X82927000Y-123022000D01*
X82927000Y-123022000D02*
X83827000Y-123022000D01*
X75307000Y-125022000D02*
X75307000Y-123022000D01*
X76207000Y-125022000D02*
X75307000Y-125022000D01*
X68587000Y-123022000D02*
X68587000Y-125022000D01*
X77477000Y-125022000D02*
X76577000Y-125022000D01*
X72767000Y-125022000D02*
X72767000Y-123022000D01*
X77847000Y-125022000D02*
X77847000Y-123022000D01*
X76577000Y-123022000D02*
X77477000Y-123022000D01*
X78747000Y-123022000D02*
X78747000Y-125022000D01*
X77477000Y-123022000D02*
X77477000Y-125022000D01*
X77847000Y-123022000D02*
X78747000Y-123022000D01*
X71497000Y-123022000D02*
X72397000Y-123022000D01*
X83827000Y-123022000D02*
X83827000Y-125022000D01*
X78747000Y-125022000D02*
X77847000Y-125022000D01*
X67687000Y-125022000D02*
X67687000Y-123022000D01*
X74937000Y-123022000D02*
X74937000Y-125022000D01*
X72397000Y-125022000D02*
X71497000Y-125022000D01*
X74937000Y-125022000D02*
X74037000Y-125022000D01*
X84197000Y-123022000D02*
X85097000Y-123022000D01*
X85097000Y-125022000D02*
X84197000Y-125022000D01*
X74037000Y-123022000D02*
X74937000Y-123022000D01*
X71127000Y-125022000D02*
X70227000Y-125022000D01*
X70227000Y-125022000D02*
X70227000Y-123022000D01*
X69857000Y-125022000D02*
X68957000Y-125022000D01*
X75307000Y-123022000D02*
X76207000Y-123022000D01*
X73667000Y-125022000D02*
X72767000Y-125022000D01*
X71497000Y-125022000D02*
X71497000Y-123022000D01*
X84197000Y-125022000D02*
X84197000Y-123022000D01*
X68957000Y-123022000D02*
X69857000Y-123022000D01*
X72767000Y-123022000D02*
X73667000Y-123022000D01*
X62237000Y-107022000D02*
X62237000Y-105022000D01*
X68587000Y-125022000D02*
X67687000Y-125022000D01*
X74037000Y-125022000D02*
X74037000Y-123022000D01*
X71127000Y-123022000D02*
X71127000Y-125022000D01*
X67687000Y-123022000D02*
X68587000Y-123022000D01*
X68957000Y-125022000D02*
X68957000Y-123022000D01*
X76577000Y-125022000D02*
X76577000Y-123022000D01*
X70227000Y-123022000D02*
X71127000Y-123022000D01*
X72397000Y-123022000D02*
X72397000Y-125022000D01*
X85097000Y-123022000D02*
X85097000Y-125022000D01*
X76207000Y-123022000D02*
X76207000Y-125022000D01*
X74037000Y-107022000D02*
X74937000Y-107022000D01*
X75307000Y-107022000D02*
X76207000Y-107022000D01*
X67687000Y-105022000D02*
X67687000Y-107022000D01*
X63507000Y-105022000D02*
X62607000Y-105022000D01*
X68957000Y-105022000D02*
X68957000Y-107022000D01*
X62607000Y-105022000D02*
X62607000Y-107022000D01*
X63507000Y-107022000D02*
X63507000Y-105022000D01*
X74937000Y-105022000D02*
X74037000Y-105022000D01*
X64777000Y-107022000D02*
X64777000Y-105022000D01*
X62607000Y-107022000D02*
X63507000Y-107022000D01*
X61337000Y-105022000D02*
X61337000Y-107022000D01*
X62237000Y-105022000D02*
X61337000Y-105022000D01*
X61337000Y-107022000D02*
X62237000Y-107022000D01*
X72767000Y-107022000D02*
X73667000Y-107022000D01*
X70227000Y-107022000D02*
X71127000Y-107022000D01*
X68587000Y-105022000D02*
X67687000Y-105022000D01*
X63877000Y-107022000D02*
X64777000Y-107022000D01*
X71497000Y-105022000D02*
X71497000Y-107022000D01*
X69857000Y-107022000D02*
X69857000Y-105022000D01*
X73667000Y-107022000D02*
X73667000Y-105022000D01*
X70227000Y-105022000D02*
X70227000Y-107022000D01*
X69857000Y-105022000D02*
X68957000Y-105022000D01*
X68957000Y-107022000D02*
X69857000Y-107022000D01*
X67687000Y-107022000D02*
X68587000Y-107022000D01*
X73667000Y-105022000D02*
X72767000Y-105022000D01*
X71497000Y-107022000D02*
X72397000Y-107022000D01*
X68587000Y-107022000D02*
X68587000Y-105022000D01*
X66417000Y-107022000D02*
X67317000Y-107022000D01*
X75307000Y-105022000D02*
X75307000Y-107022000D01*
X72397000Y-105022000D02*
X71497000Y-105022000D01*
X76207000Y-107022000D02*
X76207000Y-105022000D01*
X71127000Y-105022000D02*
X70227000Y-105022000D01*
X71127000Y-107022000D02*
X71127000Y-105022000D01*
X67317000Y-105022000D02*
X66417000Y-105022000D01*
X67317000Y-107022000D02*
X67317000Y-105022000D01*
X74037000Y-105022000D02*
X74037000Y-107022000D01*
X66047000Y-105022000D02*
X65147000Y-105022000D01*
X65147000Y-105022000D02*
X65147000Y-107022000D01*
X65147000Y-107022000D02*
X66047000Y-107022000D01*
X74937000Y-107022000D02*
X74937000Y-105022000D01*
X72767000Y-105022000D02*
X72767000Y-107022000D01*
X72397000Y-107022000D02*
X72397000Y-105022000D01*
X66417000Y-105022000D02*
X66417000Y-107022000D01*
X66047000Y-107022000D02*
X66047000Y-105022000D01*
X64777000Y-105022000D02*
X63877000Y-105022000D01*
X63877000Y-105022000D02*
X63877000Y-107022000D01*
D11*
G04 #@! TO.C,J401*
X40532914Y-110880540D02*
X39632914Y-109630540D01*
X40532914Y-110180540D02*
X40132914Y-109630540D01*
X40532914Y-112280540D02*
X38932914Y-110055540D01*
X39132914Y-109630540D02*
X40532914Y-111580540D01*
X38632914Y-108930540D02*
X39132914Y-109630540D01*
X39132914Y-108930540D02*
X39232914Y-109080540D01*
X38132914Y-108930540D02*
X38632914Y-109630540D01*
X37632914Y-108930540D02*
X38132914Y-109630540D01*
X37132914Y-108930540D02*
X37632914Y-109630540D01*
X36632914Y-108930540D02*
X37132914Y-109630540D01*
X36132914Y-108930540D02*
X36632914Y-109630540D01*
X35632914Y-108930540D02*
X36132914Y-109630540D01*
X35132914Y-108930540D02*
X35632914Y-109630540D01*
X34632914Y-108930540D02*
X35132914Y-109630540D01*
X34132914Y-108930540D02*
X34632914Y-109630540D01*
X33632914Y-108930540D02*
X34132914Y-109630540D01*
X33132914Y-108930540D02*
X33632914Y-109630540D01*
X32632914Y-108930540D02*
X33132914Y-109630540D01*
X32132914Y-108930540D02*
X32632914Y-109630540D01*
X31632914Y-108930540D02*
X32132914Y-109630540D01*
X37582914Y-108580540D02*
X37082914Y-107830540D01*
X38082914Y-108580540D02*
X37582914Y-107830540D01*
X38582914Y-108580540D02*
X38082914Y-107830540D01*
X39082914Y-108580540D02*
X38582914Y-107830540D01*
X39582914Y-108580540D02*
X39082914Y-107830540D01*
X40082914Y-108580540D02*
X39582914Y-107830540D01*
X40582914Y-108580540D02*
X40082914Y-107830540D01*
X41082914Y-108580540D02*
X40582914Y-107830540D01*
X41582914Y-108580540D02*
X41082914Y-107830540D01*
X42082914Y-108580540D02*
X41582914Y-107830540D01*
X42582914Y-108580540D02*
X42082914Y-107830540D01*
X43082914Y-108580540D02*
X42582914Y-107830540D01*
X43582914Y-108580540D02*
X43082914Y-107830540D01*
X44082914Y-108580540D02*
X43582914Y-107830540D01*
X44582914Y-108580540D02*
X44082914Y-107830540D01*
X45082914Y-108580540D02*
X44582914Y-107830540D01*
X30832914Y-118530540D02*
X29932914Y-117980540D01*
X30832914Y-119030540D02*
X29482914Y-118230540D01*
X30832914Y-119530540D02*
X29482914Y-118730540D01*
X30832914Y-120030540D02*
X29482914Y-119230540D01*
X30832914Y-120530540D02*
X29482914Y-119730540D01*
X37032914Y-107830540D02*
X45082914Y-107830540D01*
X37032914Y-108580540D02*
X37032914Y-107830540D01*
X45082914Y-108580540D02*
X37032914Y-108580540D01*
X45082914Y-107830540D02*
X45082914Y-108580540D01*
X31632914Y-108930540D02*
X39232914Y-108930540D01*
X31632914Y-109630540D02*
X31632914Y-108930540D01*
X40532914Y-109630540D02*
X31632914Y-109630540D01*
X39232914Y-108930540D02*
X39232914Y-109630540D01*
X29482914Y-117980540D02*
X30832914Y-117980540D01*
X29482914Y-120530540D02*
X29482914Y-117980540D01*
X30832914Y-120530540D02*
X29482914Y-120530540D01*
X30832914Y-117980540D02*
X30832914Y-120530540D01*
X38932914Y-118330540D02*
X38932914Y-109630540D01*
X40532914Y-118330540D02*
X38932914Y-118330540D01*
X40532914Y-109630540D02*
X40532914Y-118330540D01*
X40532914Y-112980540D02*
X38932914Y-110755540D01*
X40532914Y-113680540D02*
X38932914Y-111455540D01*
X40532914Y-114380540D02*
X38932914Y-112155540D01*
X40532914Y-115080540D02*
X38932914Y-112855540D01*
X40532914Y-115780540D02*
X38932914Y-113555540D01*
X40532914Y-116480540D02*
X38932914Y-114255540D01*
X40532914Y-117180540D02*
X38932914Y-114955540D01*
X40532914Y-117880540D02*
X38932914Y-115655540D01*
X40332914Y-118330540D02*
X38932914Y-116355540D01*
X39832914Y-118330540D02*
X38932914Y-117055540D01*
X39332914Y-118330540D02*
X38932914Y-117755540D01*
G04 #@! TD*
M02*
