M48
;DRILL file {KiCad (5.0.0)} date 09/25/18 21:01:20
;FORMAT={-:-/ absolute / metric / decimal}
FMAT,2
METRIC,TZ
T1C0.200
T2C0.400
T3C0.762
T4C0.800
T5C0.900
T6C1.000
T7C1.100
%
G90
G05
M71
T1
X52.379Y-114.036
X52.379Y-115.086
X52.379Y-116.136
X53.429Y-114.036
X53.429Y-115.086
X53.429Y-116.136
X54.479Y-114.036
X54.479Y-115.086
X54.479Y-116.136
T2
X19.431Y-178.308
X20.251Y-17.591
X21.336Y-34.798
X21.336Y-190.881
X21.971Y-77.597
X23.241Y-132.715
X23.495Y-141.478
X23.495Y-157.988
X23.495Y-165.1
X23.495Y-173.609
X23.622Y-149.352
X23.622Y-178.308
X24.003Y-75.946
X24.511Y-63.246
X24.638Y-72.771
X24.638Y-81.153
X24.765Y-94.234
X24.765Y-105.664
X24.765Y-116.967
X24.854Y-122.579
X24.892Y-36.957
X25.425Y-41.725
X26.797Y-123.444
X26.924Y-130.81
X27.178Y-53.34
X27.178Y-59.182
X27.813Y-129.196
X28.321Y-74.803
X28.448Y-133.985
X28.956Y-178.816
X29.464Y-158.115
X30.353Y-105.664
X30.607Y-159.766
X30.734Y-134.493
X30.734Y-140.208
X30.734Y-145.415
X30.861Y-136.779
X30.861Y-151.257
X30.988Y-156.591
X32.004Y-53.467
X32.258Y-71.755
X32.639Y-120.142
X32.766Y-128.905
X33.05Y-58.441
X33.655Y-116.586
X34.036Y-31.623
X34.925Y-101.346
X35.179Y-171.704
X35.306Y-133.985
X35.306Y-137.541
X36.195Y-121.92
X36.195Y-128.905
X36.322Y-116.586
X36.703Y-176.784
X37.427Y-114.578
X38.31Y-55.901
X39.116Y-128.905
X39.243Y-119.888
X39.497Y-96.52
X39.497Y-171.704
X39.624Y-105.664
X39.898Y-190.881
X40.894Y-141.351
X40.95Y-61.601
X41.275Y-111.76
X41.336Y-18.542
X41.783Y-134.366
X41.91Y-128.905
X42.037Y-160.147
X42.164Y-139.663
X42.291Y-51.689
X42.545Y-136.144
X42.799Y-71.628
X42.926Y-117.983
X42.926Y-155.321
X43.053Y-31.623
X43.307Y-105.664
X43.777Y-114.578
X43.942Y-75.565
X44.196Y-44.958
X44.45Y-165.354
X44.704Y-81.915
X45.092Y-67.425
X45.425Y-41.725
X45.847Y-123.063
X45.847Y-128.651
X45.847Y-157.988
X46.355Y-133.731
X46.482Y-78.105
X46.482Y-81.915
X46.736Y-139.319
X46.863Y-87.249
X47.117Y-95.504
X47.117Y-102.743
X47.244Y-108.331
X47.26Y-114.19
X48.132Y-114.68
X48.133Y-112.395
X48.501Y-118.2
X48.859Y-116.61
X48.984Y-119.785
X49.092Y-71.081
X49.276Y-134.62
X49.403Y-53.086
X49.403Y-58.801
X49.784Y-127.
X49.844Y-115.945
X49.911Y-46.863
X50.038Y-92.583
X50.127Y-120.609
X50.165Y-108.077
X50.165Y-138.811
X50.254Y-114.07
X50.8Y-80.264
X50.927Y-76.327
X51.27Y-118.134
X51.27Y-121.334
X51.689Y-72.39
X51.943Y-106.097
X52.307Y-111.956
X52.324Y-90.297
X52.324Y-94.615
X52.324Y-139.319
X52.578Y-83.439
X52.578Y-130.048
X52.831Y-118.434
X52.832Y-108.9
X53.05Y-58.441
X53.086Y-133.604
X53.213Y-88.9
X53.302Y-111.657
X53.594Y-35.941
X53.594Y-96.774
X53.848Y-79.248
X53.853Y-88.132
X54.356Y-119.159
X54.501Y-87.37
X55.142Y-112.179
X55.456Y-110.518
X55.499Y-137.795
X55.626Y-92.837
X55.626Y-94.869
X55.715Y-128.167
X55.753Y-76.962
X55.849Y-112.886
X55.88Y-72.39
X56.437Y-89.277
X56.515Y-98.425
X56.515Y-101.219
X56.556Y-113.593
X56.991Y-115.774
X57.023Y-160.147
X57.15Y-102.743
X57.239Y-114.324
X57.277Y-135.128
X57.59Y-117.534
X57.62Y-127.405
X57.658Y-139.319
X57.785Y-92.837
X57.912Y-109.347
X58.31Y-55.901
X58.801Y-117.348
X58.838Y-141.605
X59.152Y-90.694
X59.182Y-48.641
X59.182Y-91.694
X59.547Y-110.109
X59.563Y-165.481
X59.853Y-118.395
X59.898Y-190.881
X60.495Y-117.496
X60.706Y-81.915
X61.049Y-98.195
X61.214Y-103.886
X61.214Y-140.843
X61.214Y-141.843
X61.27Y-61.601
X61.336Y-18.542
X61.595Y-64.951
X61.595Y-108.368
X61.722Y-71.882
X61.722Y-101.473
X61.849Y-51.943
X62.103Y-41.783
X62.103Y-138.684
X62.201Y-117.673
X62.32Y-111.125
X62.484Y-85.725
X62.7Y-98.195
X63.246Y-87.376
X63.881Y-84.201
X64.008Y-92.202
X64.224Y-98.068
X64.389Y-44.831
X64.77Y-135.636
X65.024Y-77.978
X65.024Y-79.248
X65.278Y-72.898
X65.278Y-74.168
X65.278Y-75.438
X65.278Y-76.708
X65.278Y-80.645
X65.278Y-81.915
X65.278Y-103.886
X65.425Y-41.725
X65.532Y-107.823
X65.692Y-112.301
X65.72Y-120.974
X65.857Y-118.624
X66.675Y-95.631
X66.802Y-109.093
X67.023Y-118.764
X67.183Y-132.842
X67.732Y-65.815
X67.912Y-127.527
X68.039Y-120.796
X68.453Y-130.937
X68.58Y-98.044
X68.961Y-85.725
X69.038Y-120.775
X69.342Y-90.17
X69.342Y-122.047
X69.469Y-72.39
X69.596Y-82.804
X70.231Y-104.267
X70.485Y-117.094
X70.612Y-86.868
X70.612Y-132.461
X70.739Y-130.175
X71.755Y-115.951
X73.025Y-37.592
X73.025Y-161.925
X73.05Y-58.441
X73.279Y-126.365
X73.279Y-132.588
X73.406Y-114.935
X73.66Y-93.98
X73.66Y-165.227
X74.168Y-84.328
X74.295Y-74.295
X74.422Y-90.805
X74.422Y-103.378
X74.422Y-108.966
X74.549Y-86.995
X74.676Y-130.048
X75.565Y-101.854
X76.066Y-109.862
X76.073Y-126.365
X76.327Y-96.901
X77.672Y-71.395
X77.978Y-128.27
X78.31Y-55.901
X78.486Y-103.378
X78.612Y-79.075
X78.652Y-77.845
X78.74Y-85.725
X79.Y-81.126
X79.032Y-80.08
X79.248Y-83.058
X79.629Y-91.313
X79.629Y-117.094
X79.898Y-190.881
X80.353Y-101.624
X80.518Y-41.021
X81.242Y-98.449
X81.28Y-90.805
X81.336Y-18.542
X81.407Y-116.332
X81.534Y-119.126
X81.59Y-61.601
X81.852Y-65.635
X81.852Y-69.165
X84.201Y-113.411
X84.328Y-141.605
X84.455Y-108.077
X84.455Y-121.158
X84.455Y-137.795
X84.836Y-128.905
X85.179Y-101.624
X85.471Y-87.376
X85.687Y-97.56
X86.342Y-101.426
X86.36Y-102.489
X86.487Y-128.905
X87.122Y-132.588
X87.757Y-160.02
X88.138Y-93.853
X88.646Y-156.337
X89.535Y-141.224
X89.535Y-165.227
X91.227Y-82.55
X91.44Y-38.481
X92.71Y-76.708
X93.05Y-58.441
X93.472Y-86.106
X94.361Y-35.941
X94.388Y-104.939
X94.742Y-95.758
X94.742Y-138.811
X95.123Y-126.746
X97.155Y-130.429
X97.536Y-132.588
X98.044Y-141.859
X98.31Y-55.901
X98.679Y-88.265
X98.933Y-91.821
X99.695Y-94.996
X99.898Y-190.881
X100.457Y-101.219
X100.64Y-61.601
X100.85Y-68.981
X101.336Y-18.542
X101.6Y-98.425
X101.931Y-119.531
X101.981Y-105.447
X101.981Y-107.347
X101.981Y-117.412
X101.981Y-170.561
X102.108Y-51.562
X102.108Y-136.906
X102.235Y-150.876
X102.322Y-65.445
X102.616Y-159.385
X102.743Y-35.56
X103.505Y-131.445
X104.227Y-82.677
X104.267Y-44.958
X104.267Y-108.204
X104.394Y-165.354
X104.648Y-104.775
X105.791Y-76.581
X108.458Y-98.044
X108.839Y-137.668
X109.474Y-127.
X110.617Y-104.775
X110.871Y-94.996
X110.871Y-141.732
X111.633Y-137.922
X112.141Y-98.044
X113.05Y-58.441
X114.173Y-35.56
X114.808Y-99.568
X114.935Y-127.254
X115.062Y-77.089
X115.993Y-94.441
X115.993Y-96.116
X116.84Y-160.147
X117.094Y-104.648
X118.31Y-55.901
X118.491Y-85.979
X119.126Y-97.028
X119.38Y-165.1
X119.507Y-82.55
X119.634Y-122.428
X119.898Y-190.881
X120.015Y-84.963
X120.015Y-87.757
X120.523Y-108.077
X120.96Y-61.601
X121.336Y-18.542
X123.19Y-77.089
X123.992Y-66.375
X125.984Y-77.089
X126.619Y-122.174
X127.Y-104.902
X127.635Y-134.747
X128.778Y-156.083
X129.413Y-153.416
X130.81Y-77.089
X131.318Y-87.376
X131.445Y-37.338
X131.445Y-85.344
X132.08Y-95.377
X132.334Y-82.55
X132.334Y-141.605
X133.05Y-58.441
X133.096Y-87.376
X133.096Y-149.86
X133.223Y-84.836
X133.858Y-161.036
X134.493Y-164.338
X134.747Y-91.626
X135.071Y-123.641
X136.271Y-76.835
X136.779Y-155.702
X136.906Y-99.822
X137.16Y-108.204
X138.176Y-91.821
X138.31Y-55.901
X139.192Y-78.486
X139.898Y-190.881
X139.954Y-133.096
X140.081Y-172.847
X140.462Y-104.013
X140.843Y-82.677
X141.097Y-113.411
X141.28Y-61.601
X141.336Y-18.542
X141.846Y-166.213
X142.748Y-157.226
X143.256Y-65.786
X143.51Y-101.854
X144.526Y-166.624
X145.288Y-93.599
X145.542Y-86.741
X145.796Y-82.931
X145.923Y-78.486
X147.053Y-105.41
X147.32Y-150.749
X147.447Y-155.194
X147.574Y-89.154
X148.209Y-172.72
X148.717Y-94.234
X148.717Y-141.351
X148.891Y-99.53
X149.098Y-96.069
X149.987Y-162.814
X150.749Y-91.694
X150.876Y-124.841
X151.257Y-115.062
X151.511Y-38.1
X151.511Y-118.364
X152.273Y-89.154
X153.05Y-58.441
X154.178Y-94.869
X157.099Y-78.359
X157.353Y-30.226
X157.607Y-75.184
X157.607Y-157.099
X158.31Y-55.901
X158.75Y-83.947
X158.75Y-88.138
X159.699Y-93.472
X159.898Y-190.881
X161.163Y-155.321
X161.336Y-18.542
X161.544Y-127.381
X161.544Y-131.445
X161.544Y-160.147
X161.544Y-163.703
X161.722Y-61.595
X162.433Y-66.675
X162.433Y-89.662
X162.433Y-93.472
X162.496Y-96.551
X162.56Y-175.006
X162.687Y-98.298
X163.83Y-67.31
X164.084Y-138.557
X164.338Y-66.294
X164.846Y-147.066
X164.973Y-171.577
X165.227Y-96.139
X165.481Y-94.234
X165.989Y-87.503
X167.005Y-52.959
X168.275Y-172.974
X168.516Y-162.403
X168.656Y-133.731
X168.91Y-89.281
X168.91Y-93.091
X168.91Y-98.298
X168.91Y-111.379
X169.291Y-126.365
X169.418Y-120.269
X169.545Y-58.42
X170.053Y-78.105
X170.434Y-74.93
X170.688Y-156.21
X171.056Y-159.863
X171.45Y-37.973
X171.577Y-89.408
X171.831Y-83.693
X171.922Y-100.284
X171.958Y-52.959
X173.05Y-58.441
X173.736Y-162.052
X173.863Y-94.996
X174.498Y-91.44
X174.625Y-40.767
X175.514Y-28.448
X178.054Y-87.757
X178.31Y-55.901
X179.324Y-92.881
X179.898Y-190.881
X180.112Y-61.625
X180.213Y-99.822
X180.848Y-109.093
X180.848Y-113.284
X181.336Y-18.542
X181.356Y-63.754
X181.61Y-78.359
X182.88Y-97.028
X183.769Y-92.583
X187.071Y-123.571
X187.131Y-119.931
X187.198Y-129.921
X207.441Y-190.231
X208.153Y-18.542
X208.153Y-38.542
X208.153Y-58.542
X208.153Y-78.542
X208.153Y-98.542
X208.153Y-118.542
X208.153Y-138.542
X208.153Y-158.542
X208.153Y-178.542
T3
X130.003Y-103.331
X135.003Y-103.331
T4
X123.62Y-119.55
X123.62Y-122.05
X123.62Y-132.29
X123.62Y-134.79
T5
X178.31Y-35.581
X178.31Y-38.121
X138.31Y-35.581
X138.31Y-38.121
X52.086Y-169.172
X54.626Y-169.172
X184.707Y-132.758
X187.247Y-132.758
X28.351Y-84.746
X28.351Y-87.286
X38.31Y-35.581
X38.31Y-38.121
X112.086Y-169.172
X114.626Y-169.172
X82.086Y-169.172
X84.626Y-169.172
X67.086Y-169.172
X69.626Y-169.172
X142.086Y-169.172
X144.626Y-169.172
X37.086Y-169.172
X39.626Y-169.172
X139.651Y-126.161
X139.651Y-128.701
X34.901Y-84.746
X34.901Y-87.286
X119.803Y-100.791
X119.803Y-103.331
X169.786Y-168.753
X172.326Y-168.753
X98.31Y-35.581
X98.31Y-38.121
X28.352Y-78.246
X28.352Y-80.786
X97.086Y-169.172
X99.626Y-169.172
X34.901Y-91.246
X34.901Y-93.786
X127.086Y-169.172
X129.626Y-169.172
X130.34Y-126.17
X130.34Y-128.71
X118.31Y-35.581
X118.31Y-38.121
X28.351Y-91.246
X28.351Y-93.786
X78.31Y-35.581
X78.31Y-38.121
X34.892Y-78.245
X34.892Y-80.785
X58.31Y-35.581
X58.31Y-38.121
X157.086Y-169.172
X159.626Y-169.172
X158.31Y-35.581
X158.31Y-38.121
X99.576Y-124.049
X99.576Y-126.589
T6
X95.096Y-156.472
X95.106Y-151.392
X132.51Y-118.28
X137.59Y-118.29
X34.5Y-45.731
X39.58Y-45.741
X50.096Y-156.472
X50.106Y-151.392
X26.88Y-67.331
X29.42Y-67.331
X138.226Y-146.312
X140.766Y-146.312
X143.306Y-146.312
X48.226Y-146.312
X50.766Y-146.312
X53.306Y-146.312
X98.006Y-97.052
X98.006Y-99.592
X98.006Y-102.132
X98.006Y-104.672
X132.51Y-136.06
X137.59Y-136.07
X94.5Y-45.731
X99.58Y-45.741
X140.096Y-156.472
X140.106Y-151.392
X110.096Y-156.472
X110.106Y-151.392
X46.88Y-67.331
X49.42Y-67.331
X166.88Y-67.331
X169.42Y-67.331
X108.226Y-146.312
X110.766Y-146.312
X113.306Y-146.312
X174.5Y-67.331
X177.04Y-67.331
X179.58Y-67.331
X33.226Y-146.312
X35.766Y-146.312
X38.306Y-146.312
X67.018Y-135.279
X67.018Y-137.819
X69.558Y-135.279
X69.558Y-137.819
X72.098Y-135.279
X72.098Y-137.819
X74.638Y-135.279
X74.638Y-137.819
X77.178Y-135.279
X77.178Y-137.819
X167.656Y-136.171
X172.736Y-136.181
X167.656Y-146.221
X172.736Y-146.231
X174.5Y-45.731
X179.58Y-45.741
X35.096Y-156.472
X35.106Y-151.392
X114.5Y-45.731
X119.58Y-45.741
X178.103Y-156.581
X183.183Y-156.591
X146.88Y-67.331
X149.42Y-67.331
X80.096Y-156.472
X80.106Y-151.392
X78.226Y-146.312
X80.766Y-146.312
X83.306Y-146.312
X134.5Y-67.331
X137.04Y-67.331
X139.58Y-67.331
X54.5Y-67.331
X57.04Y-67.331
X59.58Y-67.331
X34.5Y-67.331
X37.04Y-67.331
X39.58Y-67.331
X178.103Y-146.21
X183.183Y-146.22
X134.5Y-45.731
X139.58Y-45.741
X54.5Y-45.731
X59.58Y-45.741
X66.88Y-67.331
X69.42Y-67.331
X94.5Y-67.331
X97.04Y-67.331
X99.58Y-67.331
X93.226Y-146.312
X95.766Y-146.312
X98.306Y-146.312
X63.226Y-146.312
X65.766Y-146.312
X68.306Y-146.312
X178.103Y-166.953
X183.183Y-166.963
X155.096Y-156.472
X155.106Y-151.392
X86.88Y-67.331
X89.42Y-67.331
X74.5Y-67.331
X77.04Y-67.331
X79.58Y-67.331
X170.356Y-103.421
X170.356Y-105.961
X170.356Y-108.501
X74.5Y-45.731
X79.58Y-45.741
X176.706Y-105.961
X181.786Y-105.971
X126.88Y-67.331
X129.42Y-67.331
X154.5Y-67.331
X157.04Y-67.331
X159.58Y-67.331
X125.096Y-156.472
X125.106Y-151.392
X178.103Y-177.325
X183.183Y-177.335
X65.096Y-156.472
X65.106Y-151.392
X106.88Y-67.331
X109.42Y-67.331
X114.5Y-67.331
X117.04Y-67.331
X119.58Y-67.331
X153.226Y-146.312
X155.766Y-146.312
X158.306Y-146.312
X123.226Y-146.312
X125.766Y-146.312
X128.306Y-146.312
X154.5Y-45.731
X159.58Y-45.741
T7
X90.68Y-25.421
X95.76Y-25.421
X100.84Y-25.421
X105.92Y-25.421
X111.Y-25.421
X116.08Y-25.421
X121.16Y-25.421
X126.24Y-25.421
X131.32Y-25.421
X191.946Y-22.961
X191.946Y-28.041
X191.946Y-33.121
X191.946Y-38.201
X191.946Y-43.281
X191.946Y-48.361
X191.946Y-53.441
X191.946Y-58.521
X191.946Y-63.601
X78.346Y-180.183
X83.426Y-180.183
X88.506Y-180.183
X93.586Y-180.183
X98.666Y-180.183
X103.746Y-180.183
X108.826Y-180.183
X113.906Y-180.183
X118.986Y-180.183
X137.67Y-25.421
X142.75Y-25.421
X147.83Y-25.421
X152.91Y-25.421
X157.99Y-25.421
X163.07Y-25.421
X168.15Y-25.421
X173.23Y-25.421
X178.31Y-25.421
X191.946Y-141.521
X191.946Y-146.601
X191.946Y-151.681
X191.946Y-156.761
X191.946Y-161.841
X191.946Y-166.921
X191.946Y-172.001
X191.946Y-177.081
X191.946Y-182.161
X191.946Y-69.385
X191.946Y-74.465
X191.946Y-79.545
X191.946Y-84.625
X191.946Y-89.705
X191.946Y-94.785
X191.946Y-99.865
X191.946Y-104.945
X191.946Y-110.025
X32.006Y-180.183
X37.086Y-180.183
X42.166Y-180.183
X47.246Y-180.183
X52.326Y-180.183
X57.406Y-180.183
X62.486Y-180.183
X67.566Y-180.183
X72.646Y-180.183
X43.69Y-25.421
X48.77Y-25.421
X53.85Y-25.421
X58.93Y-25.421
X64.01Y-25.421
X69.09Y-25.421
X74.17Y-25.421
X79.25Y-25.421
X84.33Y-25.421
X125.336Y-180.183
X130.416Y-180.183
X135.496Y-180.183
X140.576Y-180.183
X145.656Y-180.183
X150.736Y-180.183
X155.816Y-180.183
X160.896Y-180.183
X165.976Y-180.183
T0
M30
