G04 #@! TF.GenerationSoftware,KiCad,Pcbnew,(2017-09-19 revision dddaa7e69)-makepkg*
G04 #@! TF.CreationDate,2017-11-12T19:58:56+01:00*
G04 #@! TF.ProjectId,G2,47322E6B696361645F70636200000000,rev?*
G04 #@! TF.SameCoordinates,Original*
G04 #@! TF.FileFunction,Soldermask,Bot*
G04 #@! TF.FilePolarity,Negative*
%FSLAX46Y46*%
G04 Gerber Fmt 4.6, Leading zero omitted, Abs format (unit mm)*
G04 Created by KiCad (PCBNEW (2017-09-19 revision dddaa7e69)-makepkg) date 11/12/17 19:58:56*
%MOMM*%
%LPD*%
G01*
G04 APERTURE LIST*
%ADD10R,3.400000X3.100000*%
%ADD11R,1.600000X0.700000*%
%ADD12O,2.100000X2.100000*%
%ADD13R,2.100000X2.100000*%
%ADD14C,2.900000*%
%ADD15R,2.900000X2.900000*%
%ADD16O,1.600000X2.400000*%
%ADD17R,2.400000X2.180000*%
%ADD18R,1.700000X1.100000*%
%ADD19R,3.550000X1.400000*%
%ADD20R,1.400000X1.650000*%
%ADD21R,1.650000X1.400000*%
%ADD22R,1.150000X0.650000*%
%ADD23R,0.650000X1.150000*%
%ADD24R,1.100000X1.700000*%
%ADD25R,2.000000X2.000000*%
%ADD26C,2.000000*%
G04 APERTURE END LIST*
D10*
X106866000Y-175930000D03*
X106866000Y-183290000D03*
D11*
X108666000Y-177860000D03*
X108666000Y-178360000D03*
X108666000Y-178860000D03*
X108666000Y-179360000D03*
X108666000Y-179860000D03*
X108666000Y-180360000D03*
X108666000Y-180860000D03*
X108666000Y-181360000D03*
D12*
X19370000Y-134190000D03*
X19370000Y-136730000D03*
X19370000Y-139270000D03*
X19370000Y-141810000D03*
X19370000Y-144350000D03*
X19370000Y-146890000D03*
X19370000Y-149430000D03*
D13*
X19370000Y-151970000D03*
D14*
X110820000Y-93650000D03*
X105740000Y-93650000D03*
X100660000Y-93650000D03*
X95580000Y-93650000D03*
X90500000Y-93650000D03*
X85420000Y-93650000D03*
X80340000Y-93650000D03*
X75260000Y-93650000D03*
D15*
X70180000Y-93650000D03*
D14*
X110800000Y-18040000D03*
X105720000Y-18040000D03*
X100640000Y-18040000D03*
X95560000Y-18040000D03*
X90480000Y-18040000D03*
X85400000Y-18040000D03*
X80320000Y-18040000D03*
X75240000Y-18040000D03*
D15*
X70160000Y-18040000D03*
D14*
X58000000Y-18040000D03*
X52920000Y-18040000D03*
X47840000Y-18040000D03*
X42760000Y-18040000D03*
X37680000Y-18040000D03*
X32600000Y-18040000D03*
X27520000Y-18040000D03*
X22440000Y-18040000D03*
D15*
X17360000Y-18040000D03*
D14*
X163610000Y-18040000D03*
X158530000Y-18040000D03*
X153450000Y-18040000D03*
X148370000Y-18040000D03*
X143290000Y-18040000D03*
X138210000Y-18040000D03*
X133130000Y-18040000D03*
X128050000Y-18040000D03*
D15*
X122970000Y-18040000D03*
D14*
X163620000Y-93630000D03*
X158540000Y-93630000D03*
X153460000Y-93630000D03*
X148380000Y-93630000D03*
X143300000Y-93630000D03*
X138220000Y-93630000D03*
X133140000Y-93630000D03*
X128060000Y-93630000D03*
D15*
X122980000Y-93630000D03*
D14*
X58020000Y-93650000D03*
X52940000Y-93650000D03*
X47860000Y-93650000D03*
X42780000Y-93650000D03*
X37700000Y-93650000D03*
X32620000Y-93650000D03*
X27540000Y-93650000D03*
X22460000Y-93650000D03*
D15*
X17380000Y-93650000D03*
D16*
X114515560Y-141720000D03*
X114470000Y-118860000D03*
X117010000Y-141720000D03*
X117010000Y-118860000D03*
X119550000Y-141720000D03*
X119550000Y-118860000D03*
X122090000Y-141720000D03*
X122090000Y-118860000D03*
X124630000Y-141720000D03*
X124630000Y-118860000D03*
X127170000Y-141720000D03*
X127170000Y-118860000D03*
X129710000Y-141720000D03*
X129710000Y-118860000D03*
X132250000Y-141720000D03*
X132250000Y-118860000D03*
X134790000Y-141720000D03*
X134790000Y-118860000D03*
X137330000Y-141720000D03*
X137330000Y-118860000D03*
X139870000Y-141720000D03*
X139870000Y-118860000D03*
X142410000Y-141720000D03*
X142410000Y-118860000D03*
X144950000Y-141720000D03*
X144950000Y-118860000D03*
X147490000Y-141720000D03*
X147490000Y-118860000D03*
X150030000Y-141720000D03*
X150030000Y-118860000D03*
X152570000Y-141720000D03*
X152570000Y-118860000D03*
X155110000Y-141720000D03*
X155110000Y-118860000D03*
X157650000Y-141720000D03*
X157650000Y-118860000D03*
X160190000Y-141720000D03*
X160190000Y-118860000D03*
X162730000Y-141720000D03*
X162730000Y-118860000D03*
D17*
X62651700Y-143243200D03*
X72181700Y-150863200D03*
X62651700Y-145783200D03*
X72181700Y-148323200D03*
X62651700Y-148323200D03*
X72181700Y-145783200D03*
X62651700Y-150863200D03*
X72181700Y-143243200D03*
D18*
X157400000Y-109080000D03*
X157400000Y-110980000D03*
D12*
X98578000Y-77594000D03*
X98578000Y-75054000D03*
D13*
X98578000Y-72514000D03*
D19*
X70335000Y-170030000D03*
X65285000Y-170030000D03*
X70335000Y-172570000D03*
X65285000Y-172570000D03*
X70335000Y-175110000D03*
X65285000Y-175110000D03*
X70335000Y-177650000D03*
X65285000Y-177650000D03*
X70335000Y-180190000D03*
X65285000Y-180190000D03*
X70335000Y-182730000D03*
X65285000Y-182730000D03*
X70335000Y-185270000D03*
X65285000Y-185270000D03*
X70335000Y-187810000D03*
X65285000Y-187810000D03*
D20*
X91500000Y-161330000D03*
X93500000Y-161330000D03*
D21*
X145750000Y-150384000D03*
X145750000Y-148384000D03*
D20*
X138146000Y-154210000D03*
X140146000Y-154210000D03*
X76519000Y-182785000D03*
X74519000Y-182785000D03*
D21*
X76154000Y-175498500D03*
X76154000Y-177498500D03*
X67650000Y-163860000D03*
X67650000Y-161860000D03*
D20*
X83620000Y-173440000D03*
X81620000Y-173440000D03*
X103130000Y-172760000D03*
X101130000Y-172760000D03*
X111400000Y-163200000D03*
X113400000Y-163200000D03*
D22*
X140704000Y-148466000D03*
X140704000Y-148966000D03*
X140704000Y-149466000D03*
X140704000Y-149966000D03*
X137604000Y-149966000D03*
X137604000Y-149466000D03*
X137604000Y-148966000D03*
X137604000Y-148466000D03*
D23*
X79612000Y-180008000D03*
X79112000Y-180008000D03*
X78612000Y-180008000D03*
X78112000Y-180008000D03*
X78112000Y-183108000D03*
X78612000Y-183108000D03*
X79112000Y-183108000D03*
X79612000Y-183108000D03*
D12*
X163968000Y-51918000D03*
D13*
X163968000Y-49378000D03*
X28586000Y-53696000D03*
D12*
X26046000Y-53696000D03*
X151400000Y-111530000D03*
D13*
X151400000Y-108990000D03*
X48481800Y-72626000D03*
D12*
X48481800Y-75166000D03*
X48481800Y-77706000D03*
X52233400Y-77706000D03*
X52233400Y-75166000D03*
D13*
X52233400Y-72626000D03*
X42175000Y-72626000D03*
D12*
X42175000Y-75166000D03*
X42175000Y-77706000D03*
D13*
X83338000Y-72514000D03*
D12*
X83338000Y-75054000D03*
X83338000Y-77594000D03*
X88418000Y-77594000D03*
X88418000Y-75054000D03*
D13*
X88418000Y-72514000D03*
X93498000Y-72514000D03*
D12*
X93498000Y-75054000D03*
X93498000Y-77594000D03*
D13*
X38398000Y-72626000D03*
D12*
X38398000Y-75166000D03*
X38398000Y-77706000D03*
X118216542Y-104205420D03*
X118216542Y-106745420D03*
X120756542Y-104205420D03*
X120756542Y-106745420D03*
X123296542Y-104205420D03*
X123296542Y-106745420D03*
X125836542Y-104205420D03*
X125836542Y-106745420D03*
X128376542Y-104205420D03*
D13*
X128376542Y-106745420D03*
X63240000Y-60560000D03*
D12*
X65780000Y-60560000D03*
X63240000Y-63100000D03*
X65780000Y-63100000D03*
X63240000Y-65640000D03*
X65780000Y-65640000D03*
X63240000Y-68180000D03*
X65780000Y-68180000D03*
X63240000Y-70720000D03*
X65780000Y-70720000D03*
X63240000Y-73260000D03*
X65780000Y-73260000D03*
X63240000Y-75800000D03*
X65780000Y-75800000D03*
X63240000Y-78340000D03*
X65780000Y-78340000D03*
D13*
X85228000Y-106972000D03*
D12*
X85228000Y-109512000D03*
X87768000Y-106972000D03*
X87768000Y-109512000D03*
X90308000Y-106972000D03*
X90308000Y-109512000D03*
X92848000Y-106972000D03*
X92848000Y-109512000D03*
X95388000Y-106972000D03*
X95388000Y-109512000D03*
X97928000Y-106972000D03*
X97928000Y-109512000D03*
X100468000Y-106972000D03*
X100468000Y-109512000D03*
X103008000Y-106972000D03*
X103008000Y-109512000D03*
X103008000Y-30074000D03*
X103008000Y-32614000D03*
X100468000Y-30074000D03*
X100468000Y-32614000D03*
X97928000Y-30074000D03*
X97928000Y-32614000D03*
X95388000Y-30074000D03*
X95388000Y-32614000D03*
X92848000Y-30074000D03*
X92848000Y-32614000D03*
X90308000Y-30074000D03*
X90308000Y-32614000D03*
X87768000Y-30074000D03*
X87768000Y-32614000D03*
X85228000Y-30074000D03*
D13*
X85228000Y-32614000D03*
D24*
X29230000Y-164770200D03*
X31130000Y-164770200D03*
X52932000Y-143278000D03*
X51032000Y-143278000D03*
X54932000Y-145778000D03*
X56832000Y-145778000D03*
X52932000Y-148278000D03*
X51032000Y-148278000D03*
X54932000Y-150878000D03*
X56832000Y-150878000D03*
X40660000Y-191040000D03*
X42560000Y-191040000D03*
X42560000Y-187230000D03*
X40660000Y-187230000D03*
X40660000Y-183420000D03*
X42560000Y-183420000D03*
X42560000Y-179610000D03*
X40660000Y-179610000D03*
X42560000Y-171990000D03*
X40660000Y-171990000D03*
X40660000Y-168180000D03*
X42560000Y-168180000D03*
X42560000Y-164770200D03*
X40660000Y-164770200D03*
X29230000Y-191040000D03*
X31130000Y-191040000D03*
X31130000Y-187230000D03*
X29230000Y-187230000D03*
X29230000Y-183420000D03*
X31130000Y-183420000D03*
X107595200Y-106458000D03*
X109495200Y-106458000D03*
X29230000Y-175800000D03*
X31130000Y-175800000D03*
X31130000Y-171990000D03*
X29230000Y-171990000D03*
X29230000Y-168180000D03*
X31130000Y-168180000D03*
X42560000Y-175800000D03*
X40660000Y-175800000D03*
X31130000Y-179610000D03*
X29230000Y-179610000D03*
D18*
X128377940Y-110726420D03*
X128377940Y-112626420D03*
X90400000Y-101380000D03*
X90400000Y-103280000D03*
D24*
X109495200Y-102972000D03*
X107595200Y-102972000D03*
X129940000Y-148670000D03*
X128040000Y-148670000D03*
D18*
X117938542Y-110726420D03*
X117938542Y-112626420D03*
X121485008Y-112626420D03*
X121485008Y-110726420D03*
X124931474Y-110726420D03*
X124931474Y-112626420D03*
D12*
X18220000Y-83060000D03*
X20760000Y-83060000D03*
D13*
X23300000Y-83060000D03*
D25*
X145704000Y-50000000D03*
D26*
X145704000Y-52500000D03*
X31714000Y-71960000D03*
D25*
X29214000Y-71960000D03*
M02*
