G04 #@! TF.GenerationSoftware,KiCad,Pcbnew,(2017-09-19 revision dddaa7e69)-makepkg*
G04 #@! TF.CreationDate,2017-11-12T19:58:56+01:00*
G04 #@! TF.ProjectId,G2,47322E6B696361645F70636200000000,rev?*
G04 #@! TF.SameCoordinates,Original*
G04 #@! TF.FileFunction,Drawing*
%FSLAX46Y46*%
G04 Gerber Fmt 4.6, Leading zero omitted, Abs format (unit mm)*
G04 Created by KiCad (PCBNEW (2017-09-19 revision dddaa7e69)-makepkg) date 11/12/17 19:58:56*
%MOMM*%
%LPD*%
G01*
G04 APERTURE LIST*
%ADD10C,0.200000*%
%ADD11C,0.300000*%
%ADD12C,0.100000*%
G04 APERTURE END LIST*
D10*
X9860000Y-157920000D02*
X170210000Y-157920000D01*
D11*
X171215714Y-98518571D02*
X171715714Y-100018571D01*
X172215714Y-98518571D01*
X172715714Y-99447142D02*
X173858571Y-99447142D01*
X175358571Y-98590000D02*
X175215714Y-98518571D01*
X175001428Y-98518571D01*
X174787142Y-98590000D01*
X174644285Y-98732857D01*
X174572857Y-98875714D01*
X174501428Y-99161428D01*
X174501428Y-99375714D01*
X174572857Y-99661428D01*
X174644285Y-99804285D01*
X174787142Y-99947142D01*
X175001428Y-100018571D01*
X175144285Y-100018571D01*
X175358571Y-99947142D01*
X175430000Y-99875714D01*
X175430000Y-99375714D01*
X175144285Y-99375714D01*
X176072857Y-100018571D02*
X176072857Y-99018571D01*
X176072857Y-99304285D02*
X176144285Y-99161428D01*
X176215714Y-99090000D01*
X176358571Y-99018571D01*
X176501428Y-99018571D01*
X177215714Y-100018571D02*
X177072857Y-99947142D01*
X177001428Y-99875714D01*
X176930000Y-99732857D01*
X176930000Y-99304285D01*
X177001428Y-99161428D01*
X177072857Y-99090000D01*
X177215714Y-99018571D01*
X177430000Y-99018571D01*
X177572857Y-99090000D01*
X177644285Y-99161428D01*
X177715714Y-99304285D01*
X177715714Y-99732857D01*
X177644285Y-99875714D01*
X177572857Y-99947142D01*
X177430000Y-100018571D01*
X177215714Y-100018571D01*
X178572857Y-100018571D02*
X178430000Y-99947142D01*
X178358571Y-99875714D01*
X178287142Y-99732857D01*
X178287142Y-99304285D01*
X178358571Y-99161428D01*
X178430000Y-99090000D01*
X178572857Y-99018571D01*
X178787142Y-99018571D01*
X178930000Y-99090000D01*
X179001428Y-99161428D01*
X179072857Y-99304285D01*
X179072857Y-99732857D01*
X179001428Y-99875714D01*
X178930000Y-99947142D01*
X178787142Y-100018571D01*
X178572857Y-100018571D01*
X179572857Y-99018571D02*
X179930000Y-100018571D01*
X180287142Y-99018571D01*
X181430000Y-99947142D02*
X181287142Y-100018571D01*
X181001428Y-100018571D01*
X180858571Y-99947142D01*
X180787142Y-99804285D01*
X180787142Y-99232857D01*
X180858571Y-99090000D01*
X181001428Y-99018571D01*
X181287142Y-99018571D01*
X181430000Y-99090000D01*
X181501428Y-99232857D01*
X181501428Y-99375714D01*
X180787142Y-99518571D01*
X-804285Y-157118571D02*
X-304285Y-158618571D01*
X195714Y-157118571D01*
X695714Y-158047142D02*
X1838571Y-158047142D01*
X3338571Y-157190000D02*
X3195714Y-157118571D01*
X2981428Y-157118571D01*
X2767142Y-157190000D01*
X2624285Y-157332857D01*
X2552857Y-157475714D01*
X2481428Y-157761428D01*
X2481428Y-157975714D01*
X2552857Y-158261428D01*
X2624285Y-158404285D01*
X2767142Y-158547142D01*
X2981428Y-158618571D01*
X3124285Y-158618571D01*
X3338571Y-158547142D01*
X3410000Y-158475714D01*
X3410000Y-157975714D01*
X3124285Y-157975714D01*
X4052857Y-158618571D02*
X4052857Y-157618571D01*
X4052857Y-157904285D02*
X4124285Y-157761428D01*
X4195714Y-157690000D01*
X4338571Y-157618571D01*
X4481428Y-157618571D01*
X5195714Y-158618571D02*
X5052857Y-158547142D01*
X4981428Y-158475714D01*
X4910000Y-158332857D01*
X4910000Y-157904285D01*
X4981428Y-157761428D01*
X5052857Y-157690000D01*
X5195714Y-157618571D01*
X5410000Y-157618571D01*
X5552857Y-157690000D01*
X5624285Y-157761428D01*
X5695714Y-157904285D01*
X5695714Y-158332857D01*
X5624285Y-158475714D01*
X5552857Y-158547142D01*
X5410000Y-158618571D01*
X5195714Y-158618571D01*
X6552857Y-158618571D02*
X6410000Y-158547142D01*
X6338571Y-158475714D01*
X6267142Y-158332857D01*
X6267142Y-157904285D01*
X6338571Y-157761428D01*
X6410000Y-157690000D01*
X6552857Y-157618571D01*
X6767142Y-157618571D01*
X6910000Y-157690000D01*
X6981428Y-157761428D01*
X7052857Y-157904285D01*
X7052857Y-158332857D01*
X6981428Y-158475714D01*
X6910000Y-158547142D01*
X6767142Y-158618571D01*
X6552857Y-158618571D01*
X7552857Y-157618571D02*
X7910000Y-158618571D01*
X8267142Y-157618571D01*
X9410000Y-158547142D02*
X9267142Y-158618571D01*
X8981428Y-158618571D01*
X8838571Y-158547142D01*
X8767142Y-158404285D01*
X8767142Y-157832857D01*
X8838571Y-157690000D01*
X8981428Y-157618571D01*
X9267142Y-157618571D01*
X9410000Y-157690000D01*
X9481428Y-157832857D01*
X9481428Y-157975714D01*
X8767142Y-158118571D01*
X170748714Y-157220771D02*
X171248714Y-158720771D01*
X171748714Y-157220771D01*
X172248714Y-158149342D02*
X173391571Y-158149342D01*
X174891571Y-157292200D02*
X174748714Y-157220771D01*
X174534428Y-157220771D01*
X174320142Y-157292200D01*
X174177285Y-157435057D01*
X174105857Y-157577914D01*
X174034428Y-157863628D01*
X174034428Y-158077914D01*
X174105857Y-158363628D01*
X174177285Y-158506485D01*
X174320142Y-158649342D01*
X174534428Y-158720771D01*
X174677285Y-158720771D01*
X174891571Y-158649342D01*
X174963000Y-158577914D01*
X174963000Y-158077914D01*
X174677285Y-158077914D01*
X175605857Y-158720771D02*
X175605857Y-157720771D01*
X175605857Y-158006485D02*
X175677285Y-157863628D01*
X175748714Y-157792200D01*
X175891571Y-157720771D01*
X176034428Y-157720771D01*
X176748714Y-158720771D02*
X176605857Y-158649342D01*
X176534428Y-158577914D01*
X176463000Y-158435057D01*
X176463000Y-158006485D01*
X176534428Y-157863628D01*
X176605857Y-157792200D01*
X176748714Y-157720771D01*
X176963000Y-157720771D01*
X177105857Y-157792200D01*
X177177285Y-157863628D01*
X177248714Y-158006485D01*
X177248714Y-158435057D01*
X177177285Y-158577914D01*
X177105857Y-158649342D01*
X176963000Y-158720771D01*
X176748714Y-158720771D01*
X178105857Y-158720771D02*
X177963000Y-158649342D01*
X177891571Y-158577914D01*
X177820142Y-158435057D01*
X177820142Y-158006485D01*
X177891571Y-157863628D01*
X177963000Y-157792200D01*
X178105857Y-157720771D01*
X178320142Y-157720771D01*
X178463000Y-157792200D01*
X178534428Y-157863628D01*
X178605857Y-158006485D01*
X178605857Y-158435057D01*
X178534428Y-158577914D01*
X178463000Y-158649342D01*
X178320142Y-158720771D01*
X178105857Y-158720771D01*
X179105857Y-157720771D02*
X179463000Y-158720771D01*
X179820142Y-157720771D01*
X180963000Y-158649342D02*
X180820142Y-158720771D01*
X180534428Y-158720771D01*
X180391571Y-158649342D01*
X180320142Y-158506485D01*
X180320142Y-157935057D01*
X180391571Y-157792200D01*
X180534428Y-157720771D01*
X180820142Y-157720771D01*
X180963000Y-157792200D01*
X181034428Y-157935057D01*
X181034428Y-158077914D01*
X180320142Y-158220771D01*
X-844285Y-98298571D02*
X-344285Y-99798571D01*
X155714Y-98298571D01*
X655714Y-99227142D02*
X1798571Y-99227142D01*
X3298571Y-98370000D02*
X3155714Y-98298571D01*
X2941428Y-98298571D01*
X2727142Y-98370000D01*
X2584285Y-98512857D01*
X2512857Y-98655714D01*
X2441428Y-98941428D01*
X2441428Y-99155714D01*
X2512857Y-99441428D01*
X2584285Y-99584285D01*
X2727142Y-99727142D01*
X2941428Y-99798571D01*
X3084285Y-99798571D01*
X3298571Y-99727142D01*
X3370000Y-99655714D01*
X3370000Y-99155714D01*
X3084285Y-99155714D01*
X4012857Y-99798571D02*
X4012857Y-98798571D01*
X4012857Y-99084285D02*
X4084285Y-98941428D01*
X4155714Y-98870000D01*
X4298571Y-98798571D01*
X4441428Y-98798571D01*
X5155714Y-99798571D02*
X5012857Y-99727142D01*
X4941428Y-99655714D01*
X4870000Y-99512857D01*
X4870000Y-99084285D01*
X4941428Y-98941428D01*
X5012857Y-98870000D01*
X5155714Y-98798571D01*
X5370000Y-98798571D01*
X5512857Y-98870000D01*
X5584285Y-98941428D01*
X5655714Y-99084285D01*
X5655714Y-99512857D01*
X5584285Y-99655714D01*
X5512857Y-99727142D01*
X5370000Y-99798571D01*
X5155714Y-99798571D01*
X6512857Y-99798571D02*
X6370000Y-99727142D01*
X6298571Y-99655714D01*
X6227142Y-99512857D01*
X6227142Y-99084285D01*
X6298571Y-98941428D01*
X6370000Y-98870000D01*
X6512857Y-98798571D01*
X6727142Y-98798571D01*
X6870000Y-98870000D01*
X6941428Y-98941428D01*
X7012857Y-99084285D01*
X7012857Y-99512857D01*
X6941428Y-99655714D01*
X6870000Y-99727142D01*
X6727142Y-99798571D01*
X6512857Y-99798571D01*
X7512857Y-98798571D02*
X7870000Y-99798571D01*
X8227142Y-98798571D01*
X9370000Y-99727142D02*
X9227142Y-99798571D01*
X8941428Y-99798571D01*
X8798571Y-99727142D01*
X8727142Y-99584285D01*
X8727142Y-99012857D01*
X8798571Y-98870000D01*
X8941428Y-98798571D01*
X9227142Y-98798571D01*
X9370000Y-98870000D01*
X9441428Y-99012857D01*
X9441428Y-99155714D01*
X8727142Y-99298571D01*
D10*
X9990000Y-99310000D02*
X170340000Y-99310000D01*
D12*
X117183009Y-47066600D02*
G75*
G02X116573409Y-47066600I-304800J0D01*
G01*
X115328809Y-47066600D02*
X115328809Y-50165400D01*
X116573409Y-47066600D02*
X115328809Y-47066600D01*
X117183009Y-47066600D02*
X116573409Y-47066600D01*
X118427609Y-47066600D02*
X117183009Y-47066600D01*
X118427609Y-50165400D02*
X118427609Y-47066600D01*
X115328809Y-50165400D02*
X118427609Y-50165400D01*
X119392809Y-47473000D02*
X118427609Y-47473000D01*
X119392809Y-47752400D02*
X119392809Y-47473000D01*
X118427609Y-47752400D02*
X119392809Y-47752400D01*
X118427609Y-47473000D02*
X118427609Y-47752400D01*
X119392809Y-47981000D02*
X118427609Y-47981000D01*
X119392809Y-48260400D02*
X119392809Y-47981000D01*
X118427609Y-48260400D02*
X119392809Y-48260400D01*
X118427609Y-47981000D02*
X118427609Y-48260400D01*
X119392809Y-48489000D02*
X118427609Y-48489000D01*
X119392809Y-48743000D02*
X119392809Y-48489000D01*
X118427609Y-48743000D02*
X119392809Y-48743000D01*
X118427609Y-48489000D02*
X118427609Y-48743000D01*
X119392809Y-48971600D02*
X118427609Y-48971600D01*
X119392809Y-49251000D02*
X119392809Y-48971600D01*
X118427609Y-49251000D02*
X119392809Y-49251000D01*
X118427609Y-48971600D02*
X118427609Y-49251000D01*
X119392809Y-49479600D02*
X118427609Y-49479600D01*
X119392809Y-49759000D02*
X119392809Y-49479600D01*
X118427609Y-49759000D02*
X119392809Y-49759000D01*
X118427609Y-49479600D02*
X118427609Y-49759000D01*
X114363609Y-49759000D02*
X115328809Y-49759000D01*
X114363609Y-49479600D02*
X114363609Y-49759000D01*
X115328809Y-49479600D02*
X114363609Y-49479600D01*
X115328809Y-49759000D02*
X115328809Y-49479600D01*
X114363609Y-49251000D02*
X115328809Y-49251000D01*
X114363609Y-48971600D02*
X114363609Y-49251000D01*
X115328809Y-48971600D02*
X114363609Y-48971600D01*
X115328809Y-49251000D02*
X115328809Y-48971600D01*
X114363609Y-48743000D02*
X115328809Y-48743000D01*
X114363609Y-48489000D02*
X114363609Y-48743000D01*
X115328809Y-48489000D02*
X114363609Y-48489000D01*
X115328809Y-48743000D02*
X115328809Y-48489000D01*
X114363609Y-48260400D02*
X115328809Y-48260400D01*
X114363609Y-47981000D02*
X114363609Y-48260400D01*
X115328809Y-47981000D02*
X114363609Y-47981000D01*
X115328809Y-48260400D02*
X115328809Y-47981000D01*
X114363609Y-47752400D02*
X115328809Y-47752400D01*
X114363609Y-47473000D02*
X114363609Y-47752400D01*
X115328809Y-47473000D02*
X114363609Y-47473000D01*
X115328809Y-47752400D02*
X115328809Y-47473000D01*
X115328809Y-57658400D02*
X115328809Y-57379000D01*
X115328809Y-57379000D02*
X114363609Y-57379000D01*
X114363609Y-57379000D02*
X114363609Y-57658400D01*
X114363609Y-57658400D02*
X115328809Y-57658400D01*
X115328809Y-58166400D02*
X115328809Y-57887000D01*
X115328809Y-57887000D02*
X114363609Y-57887000D01*
X114363609Y-57887000D02*
X114363609Y-58166400D01*
X114363609Y-58166400D02*
X115328809Y-58166400D01*
X115328809Y-58649000D02*
X115328809Y-58395000D01*
X115328809Y-58395000D02*
X114363609Y-58395000D01*
X114363609Y-58395000D02*
X114363609Y-58649000D01*
X114363609Y-58649000D02*
X115328809Y-58649000D01*
X115328809Y-59157000D02*
X115328809Y-58877600D01*
X115328809Y-58877600D02*
X114363609Y-58877600D01*
X114363609Y-58877600D02*
X114363609Y-59157000D01*
X114363609Y-59157000D02*
X115328809Y-59157000D01*
X115328809Y-59665000D02*
X115328809Y-59385600D01*
X115328809Y-59385600D02*
X114363609Y-59385600D01*
X114363609Y-59385600D02*
X114363609Y-59665000D01*
X114363609Y-59665000D02*
X115328809Y-59665000D01*
X118427609Y-59385600D02*
X118427609Y-59665000D01*
X118427609Y-59665000D02*
X119392809Y-59665000D01*
X119392809Y-59665000D02*
X119392809Y-59385600D01*
X119392809Y-59385600D02*
X118427609Y-59385600D01*
X118427609Y-58877600D02*
X118427609Y-59157000D01*
X118427609Y-59157000D02*
X119392809Y-59157000D01*
X119392809Y-59157000D02*
X119392809Y-58877600D01*
X119392809Y-58877600D02*
X118427609Y-58877600D01*
X118427609Y-58395000D02*
X118427609Y-58649000D01*
X118427609Y-58649000D02*
X119392809Y-58649000D01*
X119392809Y-58649000D02*
X119392809Y-58395000D01*
X119392809Y-58395000D02*
X118427609Y-58395000D01*
X118427609Y-57887000D02*
X118427609Y-58166400D01*
X118427609Y-58166400D02*
X119392809Y-58166400D01*
X119392809Y-58166400D02*
X119392809Y-57887000D01*
X119392809Y-57887000D02*
X118427609Y-57887000D01*
X118427609Y-57379000D02*
X118427609Y-57658400D01*
X118427609Y-57658400D02*
X119392809Y-57658400D01*
X119392809Y-57658400D02*
X119392809Y-57379000D01*
X119392809Y-57379000D02*
X118427609Y-57379000D01*
X115328809Y-60071400D02*
X118427609Y-60071400D01*
X118427609Y-60071400D02*
X118427609Y-56972600D01*
X118427609Y-56972600D02*
X117183009Y-56972600D01*
X117183009Y-56972600D02*
X116573409Y-56972600D01*
X116573409Y-56972600D02*
X115328809Y-56972600D01*
X115328809Y-56972600D02*
X115328809Y-60071400D01*
X117183009Y-56972600D02*
G75*
G02X116573409Y-56972600I-304800J0D01*
G01*
M02*
