G04 #@! TF.GenerationSoftware,KiCad,Pcbnew,(2017-09-19 revision dddaa7e69)-makepkg*
G04 #@! TF.CreationDate,2017-11-12T19:58:56+01:00*
G04 #@! TF.ProjectId,G2,47322E6B696361645F70636200000000,rev?*
G04 #@! TF.SameCoordinates,Original*
G04 #@! TF.FileFunction,Soldermask,Top*
G04 #@! TF.FilePolarity,Negative*
%FSLAX46Y46*%
G04 Gerber Fmt 4.6, Leading zero omitted, Abs format (unit mm)*
G04 Created by KiCad (PCBNEW (2017-09-19 revision dddaa7e69)-makepkg) date 11/12/17 19:58:56*
%MOMM*%
%LPD*%
G01*
G04 APERTURE LIST*
%ADD10R,2.400000X1.040000*%
%ADD11O,2.100000X2.100000*%
%ADD12R,2.100000X2.100000*%
%ADD13R,2.000000X1.400000*%
%ADD14R,1.600000X0.700000*%
%ADD15R,3.400000X3.100000*%
%ADD16C,2.900000*%
%ADD17R,2.900000X2.900000*%
%ADD18O,1.600000X2.400000*%
%ADD19R,1.822400X0.679400*%
%ADD20R,2.000000X3.400000*%
%ADD21R,3.400000X2.000000*%
%ADD22R,1.650000X1.400000*%
%ADD23R,1.400000X1.650000*%
%ADD24R,2.900000X2.200000*%
%ADD25R,1.300000X1.600000*%
%ADD26R,1.040000X2.400000*%
%ADD27R,1.000000X2.400000*%
%ADD28R,1.600000X1.600000*%
%ADD29R,1.700000X1.100000*%
%ADD30R,1.100000X1.700000*%
%ADD31R,1.400000X3.600000*%
%ADD32R,1.300000X1.200000*%
%ADD33R,2.000000X2.000000*%
%ADD34C,2.000000*%
%ADD35R,1.600000X1.300000*%
%ADD36R,1.500000X1.500000*%
%ADD37R,5.000000X1.500000*%
%ADD38R,9.800000X11.200000*%
%ADD39R,11.200000X9.800000*%
%ADD40R,1.500000X5.000000*%
G04 APERTURE END LIST*
D10*
X16546000Y-34392000D03*
X16546000Y-31852000D03*
X22846000Y-31852000D03*
X22846000Y-34392000D03*
D11*
X19370000Y-134190000D03*
X19370000Y-136730000D03*
X19370000Y-139270000D03*
X19370000Y-141810000D03*
X19370000Y-144350000D03*
X19370000Y-146890000D03*
X19370000Y-149430000D03*
D12*
X19370000Y-151970000D03*
D13*
X89973000Y-165980200D03*
X89973000Y-169180200D03*
X94973000Y-165980200D03*
X94973000Y-169180200D03*
D14*
X80980000Y-130560000D03*
X80980000Y-130060000D03*
X80980000Y-129560000D03*
X80980000Y-129060000D03*
X80980000Y-128560000D03*
X80980000Y-128060000D03*
X80980000Y-127560000D03*
X80980000Y-127060000D03*
D15*
X82780000Y-132490000D03*
X82780000Y-125130000D03*
D16*
X110820000Y-93650000D03*
X105740000Y-93650000D03*
X100660000Y-93650000D03*
X95580000Y-93650000D03*
X90500000Y-93650000D03*
X85420000Y-93650000D03*
X80340000Y-93650000D03*
X75260000Y-93650000D03*
D17*
X70180000Y-93650000D03*
D16*
X110800000Y-18040000D03*
X105720000Y-18040000D03*
X100640000Y-18040000D03*
X95560000Y-18040000D03*
X90480000Y-18040000D03*
X85400000Y-18040000D03*
X80320000Y-18040000D03*
X75240000Y-18040000D03*
D17*
X70160000Y-18040000D03*
D16*
X58000000Y-18040000D03*
X52920000Y-18040000D03*
X47840000Y-18040000D03*
X42760000Y-18040000D03*
X37680000Y-18040000D03*
X32600000Y-18040000D03*
X27520000Y-18040000D03*
X22440000Y-18040000D03*
D17*
X17360000Y-18040000D03*
D16*
X163610000Y-18040000D03*
X158530000Y-18040000D03*
X153450000Y-18040000D03*
X148370000Y-18040000D03*
X143290000Y-18040000D03*
X138210000Y-18040000D03*
X133130000Y-18040000D03*
X128050000Y-18040000D03*
D17*
X122970000Y-18040000D03*
D16*
X163620000Y-93630000D03*
X158540000Y-93630000D03*
X153460000Y-93630000D03*
X148380000Y-93630000D03*
X143300000Y-93630000D03*
X138220000Y-93630000D03*
X133140000Y-93630000D03*
X128060000Y-93630000D03*
D17*
X122980000Y-93630000D03*
D16*
X58020000Y-93650000D03*
X52940000Y-93650000D03*
X47860000Y-93650000D03*
X42780000Y-93650000D03*
X37700000Y-93650000D03*
X32620000Y-93650000D03*
X27540000Y-93650000D03*
X22460000Y-93650000D03*
D17*
X17380000Y-93650000D03*
D18*
X114515560Y-141720000D03*
X114470000Y-118860000D03*
X117010000Y-141720000D03*
X117010000Y-118860000D03*
X119550000Y-141720000D03*
X119550000Y-118860000D03*
X122090000Y-141720000D03*
X122090000Y-118860000D03*
X124630000Y-141720000D03*
X124630000Y-118860000D03*
X127170000Y-141720000D03*
X127170000Y-118860000D03*
X129710000Y-141720000D03*
X129710000Y-118860000D03*
X132250000Y-141720000D03*
X132250000Y-118860000D03*
X134790000Y-141720000D03*
X134790000Y-118860000D03*
X137330000Y-141720000D03*
X137330000Y-118860000D03*
X139870000Y-141720000D03*
X139870000Y-118860000D03*
X142410000Y-141720000D03*
X142410000Y-118860000D03*
X144950000Y-141720000D03*
X144950000Y-118860000D03*
X147490000Y-141720000D03*
X147490000Y-118860000D03*
X150030000Y-141720000D03*
X150030000Y-118860000D03*
X152570000Y-141720000D03*
X152570000Y-118860000D03*
X155110000Y-141720000D03*
X155110000Y-118860000D03*
X157650000Y-141720000D03*
X157650000Y-118860000D03*
X160190000Y-141720000D03*
X160190000Y-118860000D03*
X162730000Y-141720000D03*
X162730000Y-118860000D03*
D10*
X43293000Y-34392000D03*
X43293000Y-31852000D03*
X36993000Y-31852000D03*
X36993000Y-34392000D03*
D11*
X98578000Y-77594000D03*
X98578000Y-75054000D03*
D12*
X98578000Y-72514000D03*
D19*
X119062609Y-47625400D03*
X119062609Y-48108000D03*
X119062609Y-48616000D03*
X119062609Y-49124000D03*
X119062609Y-49606600D03*
X114693809Y-49606600D03*
X114693809Y-49124000D03*
X114693809Y-48616000D03*
X114693809Y-48108000D03*
X114693809Y-47625400D03*
X114693809Y-57531400D03*
X114693809Y-58014000D03*
X114693809Y-58522000D03*
X114693809Y-59030000D03*
X114693809Y-59512600D03*
X119062609Y-59512600D03*
X119062609Y-59030000D03*
X119062609Y-58522000D03*
X119062609Y-58014000D03*
X119062609Y-57531400D03*
D20*
X99452000Y-42942000D03*
X99452000Y-38542000D03*
D21*
X37562000Y-44552000D03*
X41962000Y-44552000D03*
X31548000Y-44552000D03*
X27148000Y-44552000D03*
X16734000Y-44552000D03*
X21134000Y-44552000D03*
X73204000Y-44298000D03*
X68804000Y-44298000D03*
D20*
X89800000Y-38288000D03*
X89800000Y-42688000D03*
D21*
X62790000Y-44298000D03*
X58390000Y-44298000D03*
X47976000Y-44298000D03*
X52376000Y-44298000D03*
D22*
X154650000Y-80460000D03*
X154650000Y-82460000D03*
D23*
X76404800Y-47320600D03*
X78404800Y-47320600D03*
D22*
X128740000Y-58620000D03*
X128740000Y-56620000D03*
X103960000Y-79760000D03*
X103960000Y-81760000D03*
X128850000Y-82090000D03*
X128850000Y-80090000D03*
X120240000Y-41100000D03*
X120240000Y-39100000D03*
X134180000Y-39180000D03*
X134180000Y-41180000D03*
D23*
X115820000Y-62840000D03*
X117820000Y-62840000D03*
X117890000Y-52934000D03*
X115890000Y-52934000D03*
D22*
X112320000Y-85140000D03*
X112320000Y-87140000D03*
X116860000Y-79930000D03*
X116860000Y-81930000D03*
X137600000Y-85060000D03*
X137600000Y-87060000D03*
X141150000Y-82250000D03*
X141150000Y-80250000D03*
X137540000Y-61830000D03*
X137540000Y-63830000D03*
X125390000Y-87090000D03*
X125390000Y-85090000D03*
X149930000Y-85180000D03*
X149930000Y-87180000D03*
X163440000Y-87220000D03*
X163440000Y-85220000D03*
X122990000Y-26540000D03*
X122990000Y-24540000D03*
X136390000Y-24570000D03*
X136390000Y-26570000D03*
D24*
X132920000Y-81000000D03*
X136920000Y-81000000D03*
X149160000Y-81330000D03*
X145160000Y-81330000D03*
X107920000Y-80960000D03*
X111920000Y-80960000D03*
X136840000Y-57730000D03*
X132840000Y-57730000D03*
X137080000Y-30930000D03*
X141080000Y-30930000D03*
X127320000Y-30900000D03*
X123320000Y-30900000D03*
X158590000Y-81540000D03*
X162590000Y-81540000D03*
X124740000Y-80900000D03*
X120740000Y-80900000D03*
D25*
X123810000Y-35530000D03*
X127110000Y-35530000D03*
X127140000Y-39520000D03*
X123840000Y-39520000D03*
X133540000Y-53060000D03*
X136840000Y-53060000D03*
X136770000Y-49050000D03*
X133470000Y-49050000D03*
X108290000Y-72110000D03*
X111590000Y-72110000D03*
X124530000Y-76370000D03*
X121230000Y-76370000D03*
X121230000Y-72050000D03*
X124530000Y-72050000D03*
X136610000Y-76290000D03*
X133310000Y-76290000D03*
X133350000Y-71930000D03*
X136650000Y-71930000D03*
X148920000Y-76310000D03*
X145620000Y-76310000D03*
X158970000Y-71590000D03*
X162270000Y-71590000D03*
X140620000Y-35580000D03*
X137320000Y-35580000D03*
X137320000Y-39590000D03*
X140620000Y-39590000D03*
X111620000Y-76070000D03*
X108320000Y-76070000D03*
X159060000Y-75720000D03*
X162360000Y-75720000D03*
X149030000Y-72090000D03*
X145730000Y-72090000D03*
D10*
X63740000Y-34392000D03*
X63740000Y-31852000D03*
X57440000Y-31852000D03*
X57440000Y-34392000D03*
D26*
X81164000Y-38812000D03*
X78624000Y-38812000D03*
X78624000Y-32512000D03*
X81164000Y-32512000D03*
X111390000Y-25400000D03*
X108850000Y-25400000D03*
X108850000Y-31700000D03*
X111390000Y-31700000D03*
D10*
X67854000Y-34392000D03*
X67854000Y-31852000D03*
X74154000Y-31852000D03*
X74154000Y-34392000D03*
X26769500Y-34392000D03*
X26769500Y-31852000D03*
X33069500Y-31852000D03*
X33069500Y-34392000D03*
X53516500Y-34392000D03*
X53516500Y-31852000D03*
X47216500Y-31852000D03*
X47216500Y-34392000D03*
D27*
X76685000Y-60910000D03*
X77955000Y-60910000D03*
X79225000Y-60910000D03*
X80495000Y-60910000D03*
X81765000Y-60910000D03*
X83035000Y-60910000D03*
X84305000Y-60910000D03*
X85575000Y-60910000D03*
X86845000Y-60910000D03*
X88115000Y-60910000D03*
X89385000Y-60910000D03*
X90655000Y-60910000D03*
X91925000Y-60910000D03*
X93195000Y-60910000D03*
X93195000Y-51510000D03*
X91925000Y-51510000D03*
X90655000Y-51510000D03*
X89385000Y-51510000D03*
X88115000Y-51510000D03*
X86845000Y-51510000D03*
X85575000Y-51510000D03*
X84305000Y-51510000D03*
X83035000Y-51510000D03*
X81765000Y-51510000D03*
X80495000Y-51510000D03*
X79225000Y-51510000D03*
X77955000Y-51510000D03*
X76685000Y-51510000D03*
D28*
X26511000Y-191040000D03*
X24311000Y-191040000D03*
X36249000Y-191040000D03*
X38449000Y-191040000D03*
X38449000Y-183420000D03*
X36249000Y-183420000D03*
X36249000Y-179610000D03*
X38449000Y-179610000D03*
X38449000Y-175800000D03*
X36249000Y-175800000D03*
X36249000Y-171990000D03*
X38449000Y-171990000D03*
X38449000Y-168180000D03*
X36249000Y-168180000D03*
X36249000Y-164770200D03*
X38449000Y-164770200D03*
X26511000Y-179610000D03*
X24311000Y-179610000D03*
X24311000Y-175800000D03*
X26511000Y-175800000D03*
X26511000Y-171990000D03*
X24311000Y-171990000D03*
X24311000Y-168180000D03*
X26511000Y-168180000D03*
X26511000Y-164770200D03*
X24311000Y-164770200D03*
X36249000Y-187230000D03*
X38449000Y-187230000D03*
X26511000Y-183420000D03*
X24311000Y-183420000D03*
X24311000Y-187230000D03*
X26511000Y-187230000D03*
D13*
X85074000Y-169180200D03*
X85074000Y-165980200D03*
X80074000Y-169180200D03*
X80074000Y-165980200D03*
X70175000Y-165980200D03*
X70175000Y-169180200D03*
X75175000Y-165980200D03*
X75175000Y-169180200D03*
X109771000Y-165980200D03*
X109771000Y-169180200D03*
X114771000Y-165980200D03*
X114771000Y-169180200D03*
X104872000Y-169180200D03*
X104872000Y-165980200D03*
X99872000Y-169180200D03*
X99872000Y-165980200D03*
D11*
X163968000Y-51918000D03*
D12*
X163968000Y-49378000D03*
X28586000Y-53696000D03*
D11*
X26046000Y-53696000D03*
X151400000Y-111530000D03*
D12*
X151400000Y-108990000D03*
X48481800Y-72626000D03*
D11*
X48481800Y-75166000D03*
X48481800Y-77706000D03*
X52233400Y-77706000D03*
X52233400Y-75166000D03*
D12*
X52233400Y-72626000D03*
X42175000Y-72626000D03*
D11*
X42175000Y-75166000D03*
X42175000Y-77706000D03*
D12*
X83338000Y-72514000D03*
D11*
X83338000Y-75054000D03*
X83338000Y-77594000D03*
X88418000Y-77594000D03*
X88418000Y-75054000D03*
D12*
X88418000Y-72514000D03*
X93498000Y-72514000D03*
D11*
X93498000Y-75054000D03*
X93498000Y-77594000D03*
D12*
X38398000Y-72626000D03*
D11*
X38398000Y-75166000D03*
X38398000Y-77706000D03*
X118216542Y-104205420D03*
X118216542Y-106745420D03*
X120756542Y-104205420D03*
X120756542Y-106745420D03*
X123296542Y-104205420D03*
X123296542Y-106745420D03*
X125836542Y-104205420D03*
X125836542Y-106745420D03*
X128376542Y-104205420D03*
D12*
X128376542Y-106745420D03*
X63240000Y-60560000D03*
D11*
X65780000Y-60560000D03*
X63240000Y-63100000D03*
X65780000Y-63100000D03*
X63240000Y-65640000D03*
X65780000Y-65640000D03*
X63240000Y-68180000D03*
X65780000Y-68180000D03*
X63240000Y-70720000D03*
X65780000Y-70720000D03*
X63240000Y-73260000D03*
X65780000Y-73260000D03*
X63240000Y-75800000D03*
X65780000Y-75800000D03*
X63240000Y-78340000D03*
X65780000Y-78340000D03*
D12*
X85228000Y-106972000D03*
D11*
X85228000Y-109512000D03*
X87768000Y-106972000D03*
X87768000Y-109512000D03*
X90308000Y-106972000D03*
X90308000Y-109512000D03*
X92848000Y-106972000D03*
X92848000Y-109512000D03*
X95388000Y-106972000D03*
X95388000Y-109512000D03*
X97928000Y-106972000D03*
X97928000Y-109512000D03*
X100468000Y-106972000D03*
X100468000Y-109512000D03*
X103008000Y-106972000D03*
X103008000Y-109512000D03*
X103008000Y-30074000D03*
X103008000Y-32614000D03*
X100468000Y-30074000D03*
X100468000Y-32614000D03*
X97928000Y-30074000D03*
X97928000Y-32614000D03*
X95388000Y-30074000D03*
X95388000Y-32614000D03*
X92848000Y-30074000D03*
X92848000Y-32614000D03*
X90308000Y-30074000D03*
X90308000Y-32614000D03*
X87768000Y-30074000D03*
X87768000Y-32614000D03*
X85228000Y-30074000D03*
D12*
X85228000Y-32614000D03*
D29*
X130340000Y-47940000D03*
X130340000Y-49840000D03*
X105030000Y-73070000D03*
X105030000Y-71170000D03*
X118110000Y-70960000D03*
X118110000Y-72860000D03*
X129860000Y-72720000D03*
X129860000Y-70820000D03*
X142040000Y-70880000D03*
X142040000Y-72780000D03*
X129820000Y-77140000D03*
X129820000Y-75240000D03*
X132810000Y-63900000D03*
X132810000Y-62000000D03*
X107510000Y-87090000D03*
X107510000Y-85190000D03*
X155810000Y-75060000D03*
X155810000Y-76960000D03*
X132770000Y-87030000D03*
X132770000Y-85130000D03*
X145130000Y-85360000D03*
X145130000Y-87260000D03*
X158960000Y-87140000D03*
X158960000Y-85240000D03*
X104480000Y-75490000D03*
X104480000Y-77390000D03*
X142040000Y-75150000D03*
X142040000Y-77050000D03*
X109866000Y-57572000D03*
X109866000Y-59472000D03*
X155770000Y-71140000D03*
X155770000Y-73040000D03*
X120620000Y-86900000D03*
X120620000Y-85000000D03*
X108850000Y-34712000D03*
X108850000Y-36612000D03*
X130340000Y-53990000D03*
X130340000Y-52090000D03*
X26808000Y-39152000D03*
X26808000Y-37252000D03*
X109866000Y-47666000D03*
X109866000Y-49566000D03*
X130250000Y-38770000D03*
X130250000Y-40670000D03*
X134140000Y-34990000D03*
X134140000Y-36890000D03*
X120220000Y-36640000D03*
X120220000Y-34740000D03*
X139830000Y-26580000D03*
X139830000Y-24680000D03*
X126430000Y-24550000D03*
X126430000Y-26450000D03*
X74001200Y-64582400D03*
X74001200Y-66482400D03*
X78370000Y-41570000D03*
X78370000Y-43470000D03*
X31634000Y-37252000D03*
X31634000Y-39152000D03*
X41540000Y-39086000D03*
X41540000Y-37186000D03*
X52716000Y-36998000D03*
X52716000Y-38898000D03*
X62876000Y-38898000D03*
X62876000Y-36998000D03*
X73798000Y-36998000D03*
X73798000Y-38898000D03*
X83196000Y-43470000D03*
X83196000Y-41570000D03*
X108850000Y-39284000D03*
X108850000Y-41184000D03*
X16648000Y-37252000D03*
X16648000Y-39152000D03*
X36714000Y-39152000D03*
X36714000Y-37252000D03*
X21474000Y-39152000D03*
X21474000Y-37252000D03*
X77397542Y-64582400D03*
X77397542Y-66482400D03*
X47636000Y-38898000D03*
X47636000Y-36998000D03*
X58050000Y-36998000D03*
X58050000Y-38898000D03*
X68972000Y-38898000D03*
X68972000Y-36998000D03*
X87590200Y-66482400D03*
X87590200Y-64582400D03*
X135774000Y-43348000D03*
X135774000Y-45248000D03*
D30*
X153010400Y-28270600D03*
X154910400Y-28270600D03*
D29*
X102246000Y-49610000D03*
X102246000Y-47710000D03*
X102246000Y-59472000D03*
X102246000Y-57572000D03*
X97775594Y-64582400D03*
X97775594Y-66482400D03*
X94379252Y-66482400D03*
X94379252Y-64582400D03*
X90982910Y-64582400D03*
X90982910Y-66482400D03*
X84135800Y-66457000D03*
X84135800Y-64557000D03*
X118040000Y-77360000D03*
X118040000Y-75460000D03*
X80793884Y-66482400D03*
X80793884Y-64582400D03*
D31*
X22796000Y-26518000D03*
X16596000Y-26518000D03*
X68158000Y-26518000D03*
X74358000Y-26518000D03*
X63182000Y-26518000D03*
X56982000Y-26518000D03*
X46885500Y-26518000D03*
X53085500Y-26518000D03*
X42989000Y-26518000D03*
X36789000Y-26518000D03*
X26692500Y-26518000D03*
X32892500Y-26518000D03*
X100774000Y-25756000D03*
X94574000Y-25756000D03*
X78064000Y-26010000D03*
X84264000Y-26010000D03*
D32*
X76245800Y-77267200D03*
X74245800Y-78217200D03*
X74245800Y-76317200D03*
X68988000Y-71669000D03*
X68988000Y-73569000D03*
X70988000Y-72619000D03*
X69292800Y-66589000D03*
X69292800Y-68489000D03*
X71292800Y-67539000D03*
X104008000Y-53696000D03*
X102008000Y-54646000D03*
X102008000Y-52746000D03*
X160091200Y-29195200D03*
X160091200Y-27295200D03*
X158091200Y-28245200D03*
X44521200Y-66126800D03*
X44521200Y-64226800D03*
X42521200Y-65176800D03*
X50471400Y-66396000D03*
X52471400Y-65446000D03*
X52471400Y-67346000D03*
X52344400Y-62393000D03*
X52344400Y-60493000D03*
X50344400Y-61443000D03*
X76220400Y-72288800D03*
X74220400Y-73238800D03*
X74220400Y-71338800D03*
X52242800Y-56754200D03*
X52242800Y-54854200D03*
X50242800Y-55804200D03*
D11*
X18220000Y-83060000D03*
X20760000Y-83060000D03*
D12*
X23300000Y-83060000D03*
D22*
X153584000Y-49248000D03*
X153584000Y-51248000D03*
D23*
X31224000Y-64100000D03*
X29224000Y-64100000D03*
D22*
X146442000Y-63364000D03*
X146442000Y-65364000D03*
X23252000Y-77556000D03*
X23252000Y-75556000D03*
D33*
X145704000Y-50000000D03*
D34*
X145704000Y-52500000D03*
X31714000Y-71960000D03*
D33*
X29214000Y-71960000D03*
D35*
X158634000Y-49252000D03*
X158634000Y-52552000D03*
D25*
X32522000Y-59030000D03*
X29222000Y-59030000D03*
D36*
X146572000Y-58268000D03*
X143772000Y-58268000D03*
X18172000Y-78210000D03*
X18172000Y-75410000D03*
D37*
X151335000Y-58268000D03*
X151335000Y-60808000D03*
X151335000Y-63348000D03*
D38*
X160485000Y-60808000D03*
D39*
X20712000Y-61497000D03*
D40*
X23252000Y-70647000D03*
X20712000Y-70647000D03*
X18172000Y-70647000D03*
M02*
