M48
;DRILL file {KiCad (2017-09-19 revision dddaa7e69)-makepkg} date 11/12/17 19:59:13
;FORMAT={-:-/ absolute / metric / decimal}
FMAT,2
METRIC,TZ
T1C0.400
T2C0.800
T3C1.000
T4C1.100
%
G90
G05
M71
T1
X13.162Y-88.748
X13.162Y-93.748
X13.416Y-97.822
X13.416Y-100.362
X13.416Y-105.362
X13.416Y-110.362
X13.416Y-115.362
X13.416Y-120.362
X13.416Y-125.362
X13.416Y-130.362
X13.416Y-135.362
X13.416Y-140.362
X13.416Y-145.362
X13.416Y-150.362
X13.416Y-155.362
X13.416Y-159.036
X13.416Y-164.036
X13.416Y-169.036
X13.416Y-174.036
X13.416Y-179.036
X13.416Y-184.036
X13.416Y-189.036
X13.416Y-194.036
X13.416Y-198.914
X13.67Y-13.748
X13.67Y-18.748
X13.67Y-23.748
X13.67Y-28.748
X13.67Y-33.748
X13.67Y-38.748
X13.67Y-43.748
X13.67Y-48.748
X13.67Y-53.748
X13.67Y-58.748
X13.67Y-63.748
X13.67Y-68.748
X13.67Y-73.748
X13.67Y-78.748
X13.67Y-83.748
X14.432Y-157.004
X18.416Y-100.362
X18.416Y-159.036
X18.416Y-198.914
X18.67Y-13.748
X19.432Y-157.004
X19.696Y-39.218
X21.29Y-165.64
X21.29Y-169.45
X21.29Y-173.26
X21.29Y-177.07
X21.29Y-180.88
X21.29Y-184.69
X21.29Y-188.5
X21.29Y-192.31
X22.744Y-42.774
X23.416Y-100.362
X23.416Y-198.914
X23.67Y-13.748
X23.76Y-39.574
X23.76Y-42.774
X24.432Y-157.004
X25.614Y-79.604
X27.88Y-181.74
X27.88Y-189.26
X27.9Y-170.48
X27.9Y-174.16
X27.9Y-178.02
X27.9Y-185.49
X27.92Y-166.66
X28.01Y-163.32
X28.416Y-100.362
X28.416Y-198.914
X28.67Y-13.748
X29.458Y-41.502
X30.11Y-39.218
X31.38Y-43.102
X33.158Y-39.902
X33.416Y-100.362
X33.416Y-198.914
X33.67Y-13.748
X34.657Y-48.731
X35.514Y-46.514
X38.416Y-100.362
X38.416Y-198.914
X38.67Y-13.748
X39.6Y-185.49
X39.62Y-177.78
X39.68Y-166.62
X39.68Y-189.35
X39.69Y-163.07
X39.69Y-174.05
X39.73Y-170.07
X39.81Y-181.66
X41.102Y-173.69
X41.115Y-177.5
X41.115Y-185.12
X41.127Y-169.88
X41.153Y-188.93
X41.166Y-166.47
X41.166Y-181.31
X41.199Y-192.74
X43.134Y-46.768
X43.318Y-38.202
X43.318Y-42.52
X43.416Y-100.362
X43.416Y-198.914
X43.67Y-13.748
X43.953Y-37.034
X45.172Y-49.239
X45.909Y-67.158
X46.62Y-64.186
X46.69Y-41.688
X48.416Y-100.362
X48.416Y-198.914
X48.67Y-13.748
X49.185Y-51.715
X49.439Y-69.419
X51.192Y-39.472
X53.416Y-100.362
X53.416Y-198.914
X53.466Y-80.277
X53.67Y-13.748
X53.757Y-62.408
X54.748Y-42.848
X55.002Y-39.218
X55.434Y-57.023
X57.104Y-46.514
X58.05Y-41.25
X58.416Y-100.362
X58.416Y-198.914
X58.67Y-13.748
X59.295Y-82.881
X60.406Y-49.816
X60.517Y-68.221
X60.66Y-112.3
X60.66Y-119.92
X60.66Y-126.778
X60.66Y-133.89
X60.66Y-142.272
X61.107Y-56.247
X61.174Y-85.548
X61.352Y-38.848
X62.107Y-56.247
X62.368Y-42.266
X63.107Y-56.255
X63.416Y-100.362
X63.416Y-159.036
X63.416Y-198.914
X63.498Y-42.126
X63.67Y-13.748
X64.47Y-46.514
X64.47Y-49.816
X64.62Y-143.06
X64.654Y-37.186
X65.232Y-144.05
X65.448Y-152.944
X67.645Y-112.3
X68.026Y-41.688
X68.083Y-81.153
X68.416Y-100.362
X68.416Y-159.036
X68.416Y-198.914
X68.67Y-13.748
X70.013Y-60.198
X70.058Y-46.768
X70.157Y-56.86
X70.312Y-83.09
X70.566Y-65.31
X71.074Y-70.644
X71.156Y-56.82
X72.172Y-56.86
X72.579Y-65.38
X72.598Y-70.39
X72.598Y-87.916
X72.68Y-90.882
X73.416Y-100.362
X73.416Y-159.036
X73.416Y-198.914
X73.487Y-112.3
X73.67Y-13.748
X74.052Y-40.234
X74.122Y-46.768
X74.89Y-50.115
X75.519Y-134.144
X75.519Y-140.24
X75.576Y-44.298
X75.881Y-65.583
X76.338Y-40.488
X76.386Y-44.897
X77.551Y-178.848
X77.6Y-169.08
X77.932Y-113.824
X77.932Y-126.778
X78.014Y-49.861
X78.186Y-71.152
X78.186Y-72.676
X78.186Y-128.556
X78.374Y-177.324
X78.416Y-100.362
X78.416Y-159.036
X78.416Y-198.914
X78.67Y-13.748
X79.107Y-65.355
X79.775Y-45.884
X79.792Y-70.353
X79.818Y-49.022
X79.915Y-41.896
X79.964Y-122.206
X80.021Y-67.728
X80.126Y-178.051
X80.34Y-143.833
X81.748Y-43.003
X82.485Y-65.532
X82.758Y-108.998
X83.416Y-100.362
X83.416Y-159.036
X83.416Y-198.914
X83.67Y-13.748
X83.774Y-135.16
X84.663Y-142.78
X84.79Y-112.046
X84.79Y-122.206
X85.298Y-128.048
X85.552Y-127.032
X85.99Y-47.905
X86.646Y-43.79
X86.879Y-57.836
X87.007Y-167.077
X87.514Y-28.042
X87.584Y-112.046
X87.584Y-125.508
X88.092Y-80.296
X88.092Y-84.868
X88.416Y-100.362
X88.416Y-159.036
X88.416Y-198.914
X88.454Y-48.464
X88.67Y-13.748
X89.108Y-140.24
X90.054Y-69.903
X90.308Y-48.489
X91.07Y-67.728
X91.14Y-112.046
X93.03Y-163.51
X93.416Y-100.362
X93.416Y-159.036
X93.416Y-198.914
X93.559Y-69.178
X93.67Y-13.748
X94.118Y-67.728
X94.188Y-110.776
X95.204Y-103.918
X95.439Y-49.048
X95.998Y-43.773
X96.506Y-47.676
X96.506Y-49.048
X97.937Y-44.498
X98.416Y-100.362
X98.416Y-159.036
X98.416Y-198.914
X98.67Y-13.748
X99.014Y-142.526
X99.822Y-112.522
X100.468Y-58.268
X100.838Y-113.538
X100.976Y-40.742
X101.992Y-77.572
X102.062Y-170.212
X102.316Y-165.894
X102.57Y-103.918
X102.57Y-140.875
X102.697Y-117.507
X102.697Y-129.064
X102.754Y-39.726
X103.008Y-46.33
X103.262Y-44.552
X103.416Y-100.362
X103.416Y-159.036
X103.416Y-198.914
X103.479Y-39.019
X103.586Y-142.526
X103.67Y-13.748
X104.024Y-50.902
X104.024Y-55.972
X104.389Y-143.234
X104.602Y-113.316
X105.04Y-59.172
X105.11Y-108.49
X105.294Y-52.426
X105.548Y-41.758
X105.872Y-110.522
X106.126Y-107.22
X106.31Y-69.952
X106.38Y-74.962
X107.067Y-44.303
X107.072Y-41.25
X107.22Y-169.34
X107.22Y-171.41
X107.396Y-143.288
X107.65Y-109.76
X108.093Y-43.277
X108.416Y-100.362
X108.416Y-159.036
X108.416Y-198.914
X108.67Y-13.748
X110.952Y-83.344
X110.952Y-113.316
X111.206Y-104.68
X111.39Y-59.538
X111.39Y-64.288
X111.46Y-69.374
X111.46Y-148.114
X111.466Y-56.744
X112.66Y-49.378
X112.984Y-143.161
X113.238Y-108.236
X113.416Y-100.362
X113.416Y-159.036
X113.416Y-198.914
X113.67Y-13.748
X114.Y-32.544
X114.254Y-41.942
X114.381Y-121.444
X114.381Y-129.064
X114.381Y-139.097
X114.381Y-148.114
X114.438Y-55.22
X114.692Y-77.87
X115.133Y-46.397
X115.2Y-61.062
X115.778Y-104.68
X116.216Y-69.444
X116.54Y-55.912
X116.794Y-108.998
X116.83Y-168.64
X117.054Y-60.503
X117.302Y-84.106
X117.556Y-45.752
X117.74Y-54.712
X117.81Y-89.694
X118.064Y-36.862
X118.416Y-100.362
X118.416Y-159.036
X118.416Y-198.914
X118.572Y-69.12
X118.67Y-13.748
X119.01Y-53.159
X119.285Y-52.172
X119.518Y-54.609
X119.842Y-111.792
X119.842Y-113.824
X120.157Y-55.378
X120.28Y-50.14
X120.604Y-92.234
X121.01Y-53.159
X121.513Y-57.13
X121.62Y-63.532
X121.804Y-39.218
X121.804Y-54.458
X122.382Y-41.18
X122.566Y-36.678
X122.636Y-50.324
X122.773Y-61.246
X122.89Y-70.39
X122.89Y-83.344
X122.89Y-85.884
X123.144Y-111.792
X123.328Y-62.078
X123.416Y-100.362
X123.416Y-159.036
X123.416Y-198.914
X123.67Y-13.748
X124.144Y-55.274
X125.562Y-157.004
X125.814Y-58.342
X126.406Y-57.536
X126.446Y-46.768
X126.7Y-75.724
X126.79Y-113.38
X127.138Y-78.17
X127.716Y-152.516
X128.224Y-68.866
X128.416Y-100.362
X128.416Y-159.036
X128.416Y-198.914
X128.67Y-13.748
X128.732Y-83.852
X128.916Y-65.888
X128.916Y-67.158
X130.002Y-42.196
X130.002Y-46.26
X130.535Y-115.081
X130.562Y-157.004
X130.751Y-104.324
X130.764Y-86.392
X130.948Y-65.888
X130.948Y-67.158
X131.78Y-88.932
X132.034Y-70.39
X132.796Y-46.006
X133.416Y-100.362
X133.416Y-159.036
X133.416Y-198.914
X133.558Y-43.466
X133.67Y-13.748
X133.952Y-104.35
X133.977Y-102.572
X135.082Y-70.39
X135.082Y-83.344
X135.082Y-85.63
X135.336Y-88.678
X135.562Y-157.004
X135.59Y-47.022
X136.098Y-150.4
X136.098Y-152.686
X136.79Y-78.334
X137.298Y-37.694
X137.552Y-67.666
X137.552Y-69.19
X138.314Y-41.25
X138.416Y-100.362
X138.416Y-159.036
X138.416Y-198.914
X138.638Y-46.006
X138.638Y-52.61
X138.67Y-13.748
X139.32Y-146.99
X139.33Y-69.19
X139.654Y-81.312
X139.654Y-85.884
X140.092Y-67.666
X140.346Y-78.334
X140.562Y-157.004
X140.67Y-93.758
X141.178Y-88.678
X142.194Y-49.562
X142.367Y-149.733
X142.448Y-146.59
X142.448Y-148.368
X143.21Y-85.884
X143.416Y-100.362
X143.416Y-159.036
X143.416Y-198.914
X143.67Y-13.748
X143.772Y-67.352
X143.845Y-149.892
X145.426Y-78.334
X145.562Y-157.004
X145.75Y-93.758
X145.763Y-104.35
X147.484Y-139.409
X147.782Y-104.426
X148.416Y-100.362
X148.416Y-159.036
X148.416Y-198.914
X148.67Y-13.748
X150.562Y-157.004
X151.05Y-28.04
X153.416Y-100.362
X153.416Y-159.036
X153.416Y-198.914
X153.67Y-13.748
X154.005Y-132.62
X154.062Y-78.334
X155.562Y-157.004
X158.416Y-100.362
X158.416Y-159.036
X158.416Y-198.914
X158.67Y-13.748
X159.142Y-78.334
X160.562Y-157.004
X161.498Y-79.28
X163.416Y-100.362
X163.416Y-159.036
X163.416Y-198.914
X163.67Y-13.748
X163.784Y-73.438
X163.784Y-79.28
X165.562Y-157.004
X166.832Y-100.362
X166.832Y-105.362
X166.832Y-110.362
X166.832Y-115.362
X166.832Y-120.362
X166.832Y-125.362
X166.832Y-130.362
X166.832Y-135.362
X166.832Y-140.362
X166.832Y-145.362
X166.832Y-150.362
X166.832Y-155.362
X166.832Y-159.036
X166.832Y-164.036
X166.832Y-169.036
X166.832Y-174.036
X166.832Y-179.036
X166.832Y-184.036
X166.832Y-189.036
X166.832Y-194.036
X166.832Y-198.66
X167.34Y-13.748
X167.34Y-18.748
X167.34Y-23.748
X167.34Y-28.748
X167.34Y-33.748
X167.34Y-38.748
X167.34Y-43.748
X167.34Y-48.748
X167.34Y-53.748
X167.34Y-58.748
X167.34Y-63.748
X167.34Y-68.748
X167.34Y-97.822
X167.848Y-73.748
X167.848Y-78.748
X167.848Y-83.748
X167.848Y-88.748
X167.848Y-93.748
T2
X29.214Y-71.96
X31.714Y-71.96
X114.47Y-118.86
X114.516Y-141.72
X117.01Y-118.86
X117.01Y-141.72
X119.55Y-118.86
X119.55Y-141.72
X122.09Y-118.86
X122.09Y-141.72
X124.63Y-118.86
X124.63Y-141.72
X127.17Y-118.86
X127.17Y-141.72
X129.71Y-118.86
X129.71Y-141.72
X132.25Y-118.86
X132.25Y-141.72
X134.79Y-118.86
X134.79Y-141.72
X137.33Y-118.86
X137.33Y-141.72
X139.87Y-118.86
X139.87Y-141.72
X142.41Y-118.86
X142.41Y-141.72
X144.95Y-118.86
X144.95Y-141.72
X147.49Y-118.86
X147.49Y-141.72
X150.03Y-118.86
X150.03Y-141.72
X152.57Y-118.86
X152.57Y-141.72
X155.11Y-118.86
X155.11Y-141.72
X157.65Y-118.86
X157.65Y-141.72
X160.19Y-118.86
X160.19Y-141.72
X162.73Y-118.86
X162.73Y-141.72
X145.704Y-50.
X145.704Y-52.5
T3
X63.24Y-60.56
X63.24Y-63.1
X63.24Y-65.64
X63.24Y-68.18
X63.24Y-70.72
X63.24Y-73.26
X63.24Y-75.8
X63.24Y-78.34
X65.78Y-60.56
X65.78Y-63.1
X65.78Y-65.64
X65.78Y-68.18
X65.78Y-70.72
X65.78Y-73.26
X65.78Y-75.8
X65.78Y-78.34
X85.228Y-30.074
X85.228Y-32.614
X87.768Y-30.074
X87.768Y-32.614
X90.308Y-30.074
X90.308Y-32.614
X92.848Y-30.074
X92.848Y-32.614
X95.388Y-30.074
X95.388Y-32.614
X97.928Y-30.074
X97.928Y-32.614
X100.468Y-30.074
X100.468Y-32.614
X103.008Y-30.074
X103.008Y-32.614
X18.22Y-83.06
X20.76Y-83.06
X23.3Y-83.06
X98.578Y-72.514
X98.578Y-75.054
X98.578Y-77.594
X93.498Y-72.514
X93.498Y-75.054
X93.498Y-77.594
X48.482Y-72.626
X48.482Y-75.166
X48.482Y-77.706
X151.4Y-108.99
X151.4Y-111.53
X163.968Y-49.378
X163.968Y-51.918
X19.37Y-134.19
X19.37Y-136.73
X19.37Y-139.27
X19.37Y-141.81
X19.37Y-144.35
X19.37Y-146.89
X19.37Y-149.43
X19.37Y-151.97
X38.398Y-72.626
X38.398Y-75.166
X38.398Y-77.706
X83.338Y-72.514
X83.338Y-75.054
X83.338Y-77.594
X42.175Y-72.626
X42.175Y-75.166
X42.175Y-77.706
X26.046Y-53.696
X28.586Y-53.696
X118.217Y-104.205
X118.217Y-106.745
X120.757Y-104.205
X120.757Y-106.745
X123.297Y-104.205
X123.297Y-106.745
X125.837Y-104.205
X125.837Y-106.745
X128.377Y-104.205
X128.377Y-106.745
X52.233Y-72.626
X52.233Y-75.166
X52.233Y-77.706
X88.418Y-72.514
X88.418Y-75.054
X88.418Y-77.594
X85.228Y-106.972
X85.228Y-109.512
X87.768Y-106.972
X87.768Y-109.512
X90.308Y-106.972
X90.308Y-109.512
X92.848Y-106.972
X92.848Y-109.512
X95.388Y-106.972
X95.388Y-109.512
X97.928Y-106.972
X97.928Y-109.512
X100.468Y-106.972
X100.468Y-109.512
X103.008Y-106.972
X103.008Y-109.512
T4
X122.98Y-93.63
X128.06Y-93.63
X133.14Y-93.63
X138.22Y-93.63
X143.3Y-93.63
X148.38Y-93.63
X153.46Y-93.63
X158.54Y-93.63
X163.62Y-93.63
X17.38Y-93.65
X22.46Y-93.65
X27.54Y-93.65
X32.62Y-93.65
X37.7Y-93.65
X42.78Y-93.65
X47.86Y-93.65
X52.94Y-93.65
X58.02Y-93.65
X70.16Y-18.04
X75.24Y-18.04
X80.32Y-18.04
X85.4Y-18.04
X90.48Y-18.04
X95.56Y-18.04
X100.64Y-18.04
X105.72Y-18.04
X110.8Y-18.04
X70.18Y-93.65
X75.26Y-93.65
X80.34Y-93.65
X85.42Y-93.65
X90.5Y-93.65
X95.58Y-93.65
X100.66Y-93.65
X105.74Y-93.65
X110.82Y-93.65
X17.36Y-18.04
X22.44Y-18.04
X27.52Y-18.04
X32.6Y-18.04
X37.68Y-18.04
X42.76Y-18.04
X47.84Y-18.04
X52.92Y-18.04
X58.Y-18.04
X122.97Y-18.04
X128.05Y-18.04
X133.13Y-18.04
X138.21Y-18.04
X143.29Y-18.04
X148.37Y-18.04
X153.45Y-18.04
X158.53Y-18.04
X163.61Y-18.04
T0
M30
